  0
SECTION
  2
BLOCKS
  0
ENDSEC
  0
SECTION
  2
ENTITIES
  0
LINE
  8
0
 10
-60
 20
-30
 11
-59.8555
 21
-32.9405
  0
LINE
  8
0
 10
-59.8555
 20
-32.9405
 11
-59.4236
 21
-35.8527
  0
LINE
  8
0
 10
-59.4236
 20
-35.8527
 11
-58.7082
 21
-38.7085
  0
LINE
  8
0
 10
-58.7082
 20
-38.7085
 11
-57.7164
 21
-41.4805
  0
LINE
  8
0
 10
-57.7164
 20
-41.4805
 11
-56.4576
 21
-44.1419
  0
LINE
  8
0
 10
-56.4576
 20
-44.1419
 11
-54.9441
 21
-46.6671
  0
LINE
  8
0
 10
-54.9441
 20
-46.6671
 11
-53.1903
 21
-49.0318
  0
LINE
  8
0
 10
-53.1903
 20
-49.0318
 11
-51.2132
 21
-51.2132
  0
LINE
  8
0
 10
-51.2132
 20
-51.2132
 11
-49.0318
 21
-53.1903
  0
LINE
  8
0
 10
-49.0318
 20
-53.1903
 11
-46.6671
 21
-54.9441
  0
LINE
  8
0
 10
-46.6671
 20
-54.9441
 11
-44.1419
 21
-56.4576
  0
LINE
  8
0
 10
-44.1419
 20
-56.4576
 11
-41.4805
 21
-57.7164
  0
LINE
  8
0
 10
-41.4805
 20
-57.7164
 11
-38.7085
 21
-58.7082
  0
LINE
  8
0
 10
-38.7085
 20
-58.7082
 11
-35.8527
 21
-59.4236
  0
LINE
  8
0
 10
-35.8527
 20
-59.4236
 11
-32.9405
 21
-59.8555
  0
LINE
  8
0
 10
-32.9405
 20
-59.8555
 11
-30
 21
-60
  0
LINE
  8
0
 10
-30
 20
-60
 11
30
 21
-60
  0
LINE
  8
0
 10
30
 20
-60
 11
32.9405
 21
-59.8555
  0
LINE
  8
0
 10
32.9405
 20
-59.8555
 11
35.8527
 21
-59.4236
  0
LINE
  8
0
 10
35.8527
 20
-59.4236
 11
38.7085
 21
-58.7082
  0
LINE
  8
0
 10
38.7085
 20
-58.7082
 11
41.4805
 21
-57.7164
  0
LINE
  8
0
 10
41.4805
 20
-57.7164
 11
44.1419
 21
-56.4576
  0
LINE
  8
0
 10
44.1419
 20
-56.4576
 11
46.6671
 21
-54.9441
  0
LINE
  8
0
 10
46.6671
 20
-54.9441
 11
49.0318
 21
-53.1903
  0
LINE
  8
0
 10
49.0318
 20
-53.1903
 11
51.2132
 21
-51.2132
  0
LINE
  8
0
 10
51.2132
 20
-51.2132
 11
53.1903
 21
-49.0318
  0
LINE
  8
0
 10
53.1903
 20
-49.0318
 11
54.9441
 21
-46.6671
  0
LINE
  8
0
 10
54.9441
 20
-46.6671
 11
56.4576
 21
-44.1419
  0
LINE
  8
0
 10
56.4576
 20
-44.1419
 11
57.7164
 21
-41.4805
  0
LINE
  8
0
 10
57.7164
 20
-41.4805
 11
58.7082
 21
-38.7085
  0
LINE
  8
0
 10
58.7082
 20
-38.7085
 11
59.4236
 21
-35.8527
  0
LINE
  8
0
 10
59.4236
 20
-35.8527
 11
59.8555
 21
-32.9405
  0
LINE
  8
0
 10
59.8555
 20
-32.9405
 11
60
 21
-30
  0
LINE
  8
0
 10
60
 20
-30
 11
60
 21
30
  0
LINE
  8
0
 10
60
 20
30
 11
59.8555
 21
32.9405
  0
LINE
  8
0
 10
59.8555
 20
32.9405
 11
59.4236
 21
35.8527
  0
LINE
  8
0
 10
59.4236
 20
35.8527
 11
58.7082
 21
38.7085
  0
LINE
  8
0
 10
58.7082
 20
38.7085
 11
57.7164
 21
41.4805
  0
LINE
  8
0
 10
57.7164
 20
41.4805
 11
56.4576
 21
44.1419
  0
LINE
  8
0
 10
56.4576
 20
44.1419
 11
54.9441
 21
46.6671
  0
LINE
  8
0
 10
54.9441
 20
46.6671
 11
53.1903
 21
49.0318
  0
LINE
  8
0
 10
53.1903
 20
49.0318
 11
51.2132
 21
51.2132
  0
LINE
  8
0
 10
51.2132
 20
51.2132
 11
49.0318
 21
53.1903
  0
LINE
  8
0
 10
49.0318
 20
53.1903
 11
46.6671
 21
54.9441
  0
LINE
  8
0
 10
46.6671
 20
54.9441
 11
44.1419
 21
56.4576
  0
LINE
  8
0
 10
44.1419
 20
56.4576
 11
41.4805
 21
57.7164
  0
LINE
  8
0
 10
41.4805
 20
57.7164
 11
38.7085
 21
58.7082
  0
LINE
  8
0
 10
38.7085
 20
58.7082
 11
35.8527
 21
59.4236
  0
LINE
  8
0
 10
35.8527
 20
59.4236
 11
32.9405
 21
59.8555
  0
LINE
  8
0
 10
32.9405
 20
59.8555
 11
30
 21
60
  0
LINE
  8
0
 10
30
 20
60
 11
-30
 21
60
  0
LINE
  8
0
 10
-30
 20
60
 11
-32.9405
 21
59.8555
  0
LINE
  8
0
 10
-32.9405
 20
59.8555
 11
-35.8527
 21
59.4236
  0
LINE
  8
0
 10
-35.8527
 20
59.4236
 11
-38.7085
 21
58.7082
  0
LINE
  8
0
 10
-38.7085
 20
58.7082
 11
-41.4805
 21
57.7164
  0
LINE
  8
0
 10
-41.4805
 20
57.7164
 11
-44.1419
 21
56.4576
  0
LINE
  8
0
 10
-44.1419
 20
56.4576
 11
-46.6671
 21
54.9441
  0
LINE
  8
0
 10
-46.6671
 20
54.9441
 11
-49.0318
 21
53.1903
  0
LINE
  8
0
 10
-49.0318
 20
53.1903
 11
-51.2132
 21
51.2132
  0
LINE
  8
0
 10
-51.2132
 20
51.2132
 11
-53.1903
 21
49.0318
  0
LINE
  8
0
 10
-53.1903
 20
49.0318
 11
-54.9441
 21
46.6671
  0
LINE
  8
0
 10
-54.9441
 20
46.6671
 11
-56.4576
 21
44.1419
  0
LINE
  8
0
 10
-56.4576
 20
44.1419
 11
-57.7164
 21
41.4805
  0
LINE
  8
0
 10
-57.7164
 20
41.4805
 11
-58.7082
 21
38.7085
  0
LINE
  8
0
 10
-58.7082
 20
38.7085
 11
-59.4236
 21
35.8527
  0
LINE
  8
0
 10
-59.4236
 20
35.8527
 11
-59.8555
 21
32.9405
  0
LINE
  8
0
 10
-59.8555
 20
32.9405
 11
-60
 21
30
  0
LINE
  8
0
 10
-60
 20
30
 11
-60
 21
-30
  0
LINE
  8
0
 10
-43
 20
-40
 11
-42.9856
 21
-39.7059
  0
LINE
  8
0
 10
-42.9856
 20
-39.7059
 11
-42.9424
 21
-39.4147
  0
LINE
  8
0
 10
-42.9424
 20
-39.4147
 11
-42.8708
 21
-39.1291
  0
LINE
  8
0
 10
-42.8708
 20
-39.1291
 11
-42.7716
 21
-38.8519
  0
LINE
  8
0
 10
-42.7716
 20
-38.8519
 11
-42.6458
 21
-38.5858
  0
LINE
  8
0
 10
-42.6458
 20
-38.5858
 11
-42.4944
 21
-38.3333
  0
LINE
  8
0
 10
-42.4944
 20
-38.3333
 11
-42.319
 21
-38.0968
  0
LINE
  8
0
 10
-42.319
 20
-38.0968
 11
-42.1213
 21
-37.8787
  0
LINE
  8
0
 10
-42.1213
 20
-37.8787
 11
-41.9032
 21
-37.681
  0
LINE
  8
0
 10
-41.9032
 20
-37.681
 11
-41.6667
 21
-37.5056
  0
LINE
  8
0
 10
-41.6667
 20
-37.5056
 11
-41.4142
 21
-37.3542
  0
LINE
  8
0
 10
-41.4142
 20
-37.3542
 11
-41.148
 21
-37.2284
  0
LINE
  8
0
 10
-41.148
 20
-37.2284
 11
-40.8709
 21
-37.1292
  0
LINE
  8
0
 10
-40.8709
 20
-37.1292
 11
-40.5853
 21
-37.0576
  0
LINE
  8
0
 10
-40.5853
 20
-37.0576
 11
-40.2941
 21
-37.0144
  0
LINE
  8
0
 10
-40.2941
 20
-37.0144
 11
-40
 21
-37
  0
LINE
  8
0
 10
-40
 20
-37
 11
-39.7059
 21
-37.0144
  0
LINE
  8
0
 10
-39.7059
 20
-37.0144
 11
-39.4147
 21
-37.0576
  0
LINE
  8
0
 10
-39.4147
 20
-37.0576
 11
-39.1291
 21
-37.1292
  0
LINE
  8
0
 10
-39.1291
 20
-37.1292
 11
-38.8519
 21
-37.2284
  0
LINE
  8
0
 10
-38.8519
 20
-37.2284
 11
-38.5858
 21
-37.3542
  0
LINE
  8
0
 10
-38.5858
 20
-37.3542
 11
-38.3333
 21
-37.5056
  0
LINE
  8
0
 10
-38.3333
 20
-37.5056
 11
-38.0968
 21
-37.681
  0
LINE
  8
0
 10
-38.0968
 20
-37.681
 11
-37.8787
 21
-37.8787
  0
LINE
  8
0
 10
-37.8787
 20
-37.8787
 11
-37.681
 21
-38.0968
  0
LINE
  8
0
 10
-37.681
 20
-38.0968
 11
-37.5056
 21
-38.3333
  0
LINE
  8
0
 10
-37.5056
 20
-38.3333
 11
-37.3542
 21
-38.5858
  0
LINE
  8
0
 10
-37.3542
 20
-38.5858
 11
-37.2284
 21
-38.8519
  0
LINE
  8
0
 10
-37.2284
 20
-38.8519
 11
-37.1292
 21
-39.1291
  0
LINE
  8
0
 10
-37.1292
 20
-39.1291
 11
-37.0576
 21
-39.4147
  0
LINE
  8
0
 10
-37.0576
 20
-39.4147
 11
-37.0144
 21
-39.7059
  0
LINE
  8
0
 10
-37.0144
 20
-39.7059
 11
-37
 21
-40
  0
LINE
  8
0
 10
-37
 20
-40
 11
-37.0144
 21
-40.2941
  0
LINE
  8
0
 10
-37.0144
 20
-40.2941
 11
-37.0576
 21
-40.5853
  0
LINE
  8
0
 10
-37.0576
 20
-40.5853
 11
-37.1292
 21
-40.8709
  0
LINE
  8
0
 10
-37.1292
 20
-40.8709
 11
-37.2284
 21
-41.148
  0
LINE
  8
0
 10
-37.2284
 20
-41.148
 11
-37.3542
 21
-41.4142
  0
LINE
  8
0
 10
-37.3542
 20
-41.4142
 11
-37.5056
 21
-41.6667
  0
LINE
  8
0
 10
-37.5056
 20
-41.6667
 11
-37.681
 21
-41.9032
  0
LINE
  8
0
 10
-37.681
 20
-41.9032
 11
-37.8787
 21
-42.1213
  0
LINE
  8
0
 10
-37.8787
 20
-42.1213
 11
-38.0968
 21
-42.319
  0
LINE
  8
0
 10
-38.0968
 20
-42.319
 11
-38.3333
 21
-42.4944
  0
LINE
  8
0
 10
-38.3333
 20
-42.4944
 11
-38.5858
 21
-42.6458
  0
LINE
  8
0
 10
-38.5858
 20
-42.6458
 11
-38.8519
 21
-42.7716
  0
LINE
  8
0
 10
-38.8519
 20
-42.7716
 11
-39.1291
 21
-42.8708
  0
LINE
  8
0
 10
-39.1291
 20
-42.8708
 11
-39.4147
 21
-42.9424
  0
LINE
  8
0
 10
-39.4147
 20
-42.9424
 11
-39.7059
 21
-42.9856
  0
LINE
  8
0
 10
-39.7059
 20
-42.9856
 11
-40
 21
-43
  0
LINE
  8
0
 10
-40
 20
-43
 11
-40.2941
 21
-42.9856
  0
LINE
  8
0
 10
-40.2941
 20
-42.9856
 11
-40.5853
 21
-42.9424
  0
LINE
  8
0
 10
-40.5853
 20
-42.9424
 11
-40.8709
 21
-42.8708
  0
LINE
  8
0
 10
-40.8709
 20
-42.8708
 11
-41.148
 21
-42.7716
  0
LINE
  8
0
 10
-41.148
 20
-42.7716
 11
-41.4142
 21
-42.6458
  0
LINE
  8
0
 10
-41.4142
 20
-42.6458
 11
-41.6667
 21
-42.4944
  0
LINE
  8
0
 10
-41.6667
 20
-42.4944
 11
-41.9032
 21
-42.319
  0
LINE
  8
0
 10
-41.9032
 20
-42.319
 11
-42.1213
 21
-42.1213
  0
LINE
  8
0
 10
-42.1213
 20
-42.1213
 11
-42.319
 21
-41.9032
  0
LINE
  8
0
 10
-42.319
 20
-41.9032
 11
-42.4944
 21
-41.6667
  0
LINE
  8
0
 10
-42.4944
 20
-41.6667
 11
-42.6458
 21
-41.4142
  0
LINE
  8
0
 10
-42.6458
 20
-41.4142
 11
-42.7716
 21
-41.148
  0
LINE
  8
0
 10
-42.7716
 20
-41.148
 11
-42.8708
 21
-40.8709
  0
LINE
  8
0
 10
-42.8708
 20
-40.8709
 11
-42.9424
 21
-40.5853
  0
LINE
  8
0
 10
-42.9424
 20
-40.5853
 11
-42.9856
 21
-40.2941
  0
LINE
  8
0
 10
-42.9856
 20
-40.2941
 11
-43
 21
-40
  0
LINE
  8
0
 10
-43
 20
40
 11
-42.9856
 21
40.2941
  0
LINE
  8
0
 10
-42.9856
 20
40.2941
 11
-42.9424
 21
40.5853
  0
LINE
  8
0
 10
-42.9424
 20
40.5853
 11
-42.8708
 21
40.8709
  0
LINE
  8
0
 10
-42.8708
 20
40.8709
 11
-42.7716
 21
41.148
  0
LINE
  8
0
 10
-42.7716
 20
41.148
 11
-42.6458
 21
41.4142
  0
LINE
  8
0
 10
-42.6458
 20
41.4142
 11
-42.4944
 21
41.6667
  0
LINE
  8
0
 10
-42.4944
 20
41.6667
 11
-42.319
 21
41.9032
  0
LINE
  8
0
 10
-42.319
 20
41.9032
 11
-42.1213
 21
42.1213
  0
LINE
  8
0
 10
-42.1213
 20
42.1213
 11
-41.9032
 21
42.319
  0
LINE
  8
0
 10
-41.9032
 20
42.319
 11
-41.6667
 21
42.4944
  0
LINE
  8
0
 10
-41.6667
 20
42.4944
 11
-41.4142
 21
42.6458
  0
LINE
  8
0
 10
-41.4142
 20
42.6458
 11
-41.148
 21
42.7716
  0
LINE
  8
0
 10
-41.148
 20
42.7716
 11
-40.8709
 21
42.8708
  0
LINE
  8
0
 10
-40.8709
 20
42.8708
 11
-40.5853
 21
42.9424
  0
LINE
  8
0
 10
-40.5853
 20
42.9424
 11
-40.2941
 21
42.9856
  0
LINE
  8
0
 10
-40.2941
 20
42.9856
 11
-40
 21
43
  0
LINE
  8
0
 10
-40
 20
43
 11
-39.7059
 21
42.9856
  0
LINE
  8
0
 10
-39.7059
 20
42.9856
 11
-39.4147
 21
42.9424
  0
LINE
  8
0
 10
-39.4147
 20
42.9424
 11
-39.1291
 21
42.8708
  0
LINE
  8
0
 10
-39.1291
 20
42.8708
 11
-38.8519
 21
42.7716
  0
LINE
  8
0
 10
-38.8519
 20
42.7716
 11
-38.5858
 21
42.6458
  0
LINE
  8
0
 10
-38.5858
 20
42.6458
 11
-38.3333
 21
42.4944
  0
LINE
  8
0
 10
-38.3333
 20
42.4944
 11
-38.0968
 21
42.319
  0
LINE
  8
0
 10
-38.0968
 20
42.319
 11
-37.8787
 21
42.1213
  0
LINE
  8
0
 10
-37.8787
 20
42.1213
 11
-37.681
 21
41.9032
  0
LINE
  8
0
 10
-37.681
 20
41.9032
 11
-37.5056
 21
41.6667
  0
LINE
  8
0
 10
-37.5056
 20
41.6667
 11
-37.3542
 21
41.4142
  0
LINE
  8
0
 10
-37.3542
 20
41.4142
 11
-37.2284
 21
41.148
  0
LINE
  8
0
 10
-37.2284
 20
41.148
 11
-37.1292
 21
40.8709
  0
LINE
  8
0
 10
-37.1292
 20
40.8709
 11
-37.0576
 21
40.5853
  0
LINE
  8
0
 10
-37.0576
 20
40.5853
 11
-37.0144
 21
40.2941
  0
LINE
  8
0
 10
-37.0144
 20
40.2941
 11
-37
 21
40
  0
LINE
  8
0
 10
-37
 20
40
 11
-37.0144
 21
39.7059
  0
LINE
  8
0
 10
-37.0144
 20
39.7059
 11
-37.0576
 21
39.4147
  0
LINE
  8
0
 10
-37.0576
 20
39.4147
 11
-37.1292
 21
39.1291
  0
LINE
  8
0
 10
-37.1292
 20
39.1291
 11
-37.2284
 21
38.8519
  0
LINE
  8
0
 10
-37.2284
 20
38.8519
 11
-37.3542
 21
38.5858
  0
LINE
  8
0
 10
-37.3542
 20
38.5858
 11
-37.5056
 21
38.3333
  0
LINE
  8
0
 10
-37.5056
 20
38.3333
 11
-37.681
 21
38.0968
  0
LINE
  8
0
 10
-37.681
 20
38.0968
 11
-37.8787
 21
37.8787
  0
LINE
  8
0
 10
-37.8787
 20
37.8787
 11
-38.0968
 21
37.681
  0
LINE
  8
0
 10
-38.0968
 20
37.681
 11
-38.3333
 21
37.5056
  0
LINE
  8
0
 10
-38.3333
 20
37.5056
 11
-38.5858
 21
37.3542
  0
LINE
  8
0
 10
-38.5858
 20
37.3542
 11
-38.8519
 21
37.2284
  0
LINE
  8
0
 10
-38.8519
 20
37.2284
 11
-39.1291
 21
37.1292
  0
LINE
  8
0
 10
-39.1291
 20
37.1292
 11
-39.4147
 21
37.0576
  0
LINE
  8
0
 10
-39.4147
 20
37.0576
 11
-39.7059
 21
37.0144
  0
LINE
  8
0
 10
-39.7059
 20
37.0144
 11
-40
 21
37
  0
LINE
  8
0
 10
-40
 20
37
 11
-40.2941
 21
37.0144
  0
LINE
  8
0
 10
-40.2941
 20
37.0144
 11
-40.5853
 21
37.0576
  0
LINE
  8
0
 10
-40.5853
 20
37.0576
 11
-40.8709
 21
37.1292
  0
LINE
  8
0
 10
-40.8709
 20
37.1292
 11
-41.148
 21
37.2284
  0
LINE
  8
0
 10
-41.148
 20
37.2284
 11
-41.4142
 21
37.3542
  0
LINE
  8
0
 10
-41.4142
 20
37.3542
 11
-41.6667
 21
37.5056
  0
LINE
  8
0
 10
-41.6667
 20
37.5056
 11
-41.9032
 21
37.681
  0
LINE
  8
0
 10
-41.9032
 20
37.681
 11
-42.1213
 21
37.8787
  0
LINE
  8
0
 10
-42.1213
 20
37.8787
 11
-42.319
 21
38.0968
  0
LINE
  8
0
 10
-42.319
 20
38.0968
 11
-42.4944
 21
38.3333
  0
LINE
  8
0
 10
-42.4944
 20
38.3333
 11
-42.6458
 21
38.5858
  0
LINE
  8
0
 10
-42.6458
 20
38.5858
 11
-42.7716
 21
38.8519
  0
LINE
  8
0
 10
-42.7716
 20
38.8519
 11
-42.8708
 21
39.1291
  0
LINE
  8
0
 10
-42.8708
 20
39.1291
 11
-42.9424
 21
39.4147
  0
LINE
  8
0
 10
-42.9424
 20
39.4147
 11
-42.9856
 21
39.7059
  0
LINE
  8
0
 10
-42.9856
 20
39.7059
 11
-43
 21
40
  0
LINE
  8
0
 10
-24.001
 20
11
 11
-23.696
 21
12.531
  0
LINE
  8
0
 10
-23.696
 20
12.531
 11
-22.829
 21
13.829
  0
LINE
  8
0
 10
-22.829
 20
13.829
 11
-21.531
 21
14.696
  0
LINE
  8
0
 10
-21.531
 20
14.696
 11
-20
 21
15.001
  0
LINE
  8
0
 10
-20
 20
15.001
 11
-18.469
 21
14.696
  0
LINE
  8
0
 10
-18.469
 20
14.696
 11
-17.171
 21
13.829
  0
LINE
  8
0
 10
-17.171
 20
13.829
 11
-16.304
 21
12.531
  0
LINE
  8
0
 10
-16.304
 20
12.531
 11
-15.999
 21
11
  0
LINE
  8
0
 10
-15.999
 20
11
 11
-16.304
 21
9.469
  0
LINE
  8
0
 10
-16.304
 20
9.469
 11
-17.171
 21
8.171
  0
LINE
  8
0
 10
-17.171
 20
8.171
 11
-18.469
 21
7.304
  0
LINE
  8
0
 10
-18.469
 20
7.304
 11
-19.8724
 21
7.02442
  0
LINE
  8
0
 10
-19.8724
 20
7.02442
 11
-20
 21
6.999
  0
LINE
  8
0
 10
-20
 20
6.999
 11
-21.4034
 21
7.27858
  0
LINE
  8
0
 10
-21.4034
 20
7.27858
 11
-21.531
 21
7.304
  0
LINE
  8
0
 10
-21.531
 20
7.304
 11
-22.829
 21
8.171
  0
LINE
  8
0
 10
-22.829
 20
8.171
 11
-23.696
 21
9.469
  0
LINE
  8
0
 10
-23.696
 20
9.469
 11
-24.001
 21
11
  0
LINE
  8
0
 10
-19
 20
-14.001
 11
-19
 21
4.001
  0
LINE
  8
0
 10
-19
 20
4.001
 11
-11
 21
4.001
  0
LINE
  8
0
 10
-11
 20
4.001
 11
-11
 21
15.001
  0
LINE
  8
0
 10
-11
 20
15.001
 11
-1
 21
15.001
  0
LINE
  8
0
 10
-1
 20
15.001
 11
-1
 21
3.999
  0
LINE
  8
0
 10
-1
 20
3.999
 11
-4.98996
 21
3.999
  0
LINE
  8
0
 10
-4.98996
 20
3.999
 11
-4.86321
 21
3.97375
  0
LINE
  8
0
 10
-4.86321
 20
3.97375
 11
-3.469
 21
3.696
  0
LINE
  8
0
 10
-3.469
 20
3.696
 11
-2.27917
 21
2.90125
  0
LINE
  8
0
 10
-2.27917
 20
2.90125
 11
-2.171
 21
2.829
  0
LINE
  8
0
 10
-2.171
 20
2.829
 11
-1.304
 21
1.531
  0
LINE
  8
0
 10
-1.304
 20
1.531
 11
-0.999001
 21
0
  0
LINE
  8
0
 10
-0.999001
 20
0
 11
-1.304
 21
-1.531
  0
LINE
  8
0
 10
-1.304
 20
-1.531
 11
-2.171
 21
-2.829
  0
LINE
  8
0
 10
-2.171
 20
-2.829
 11
-3.469
 21
-3.696
  0
LINE
  8
0
 10
-3.469
 20
-3.696
 11
-5
 21
-4.001
  0
LINE
  8
0
 10
-5
 20
-4.001
 11
-6.531
 21
-3.696
  0
LINE
  8
0
 10
-6.531
 20
-3.696
 11
-7.829
 21
-2.829
  0
LINE
  8
0
 10
-7.829
 20
-2.829
 11
-8.696
 21
-1.531
  0
LINE
  8
0
 10
-8.696
 20
-1.531
 11
-9
 21
-0.00501919
  0
LINE
  8
0
 10
-9
 20
-0.00501919
 11
-9
 21
-14.001
  0
LINE
  8
0
 10
-9
 20
-14.001
 11
-19
 21
-14.001
  0
LINE
  8
0
 10
1.999
 20
10.5
 11
2.201
 21
11.25
  0
LINE
  8
0
 10
2.201
 20
11.25
 11
2.75
 21
11.799
  0
LINE
  8
0
 10
2.75
 20
11.799
 11
3.5
 21
12.001
  0
LINE
  8
0
 10
3.5
 20
12.001
 11
4.25
 21
11.799
  0
LINE
  8
0
 10
4.25
 20
11.799
 11
4.799
 21
11.25
  0
LINE
  8
0
 10
4.799
 20
11.25
 11
5.001
 21
10.5
  0
LINE
  8
0
 10
5.001
 20
10.5
 11
4.799
 21
9.75
  0
LINE
  8
0
 10
4.799
 20
9.75
 11
4.25
 21
9.201
  0
LINE
  8
0
 10
4.25
 20
9.201
 11
3.5
 21
8.999
  0
LINE
  8
0
 10
3.5
 20
8.999
 11
2.75
 21
9.201
  0
LINE
  8
0
 10
2.75
 20
9.201
 11
2.201
 21
9.75
  0
LINE
  8
0
 10
2.201
 20
9.75
 11
1.999
 21
10.5
  0
LINE
  8
0
 10
12.999
 20
10
 11
13.268
 21
11
  0
LINE
  8
0
 10
13.268
 20
11
 11
14
 21
11.732
  0
LINE
  8
0
 10
14
 20
11.732
 11
15
 21
12.001
  0
LINE
  8
0
 10
15
 20
12.001
 11
16
 21
11.732
  0
LINE
  8
0
 10
16
 20
11.732
 11
16.732
 21
11
  0
LINE
  8
0
 10
16.732
 20
11
 11
17.001
 21
10
  0
LINE
  8
0
 10
17.001
 20
10
 11
16.732
 21
9
  0
LINE
  8
0
 10
16.732
 20
9
 11
16
 21
8.268
  0
LINE
  8
0
 10
16
 20
8.268
 11
15.6111
 21
8.16339
  0
LINE
  8
0
 10
15.6111
 20
8.16339
 11
15
 21
7.999
  0
LINE
  8
0
 10
15
 20
7.999
 11
14.6111
 21
8.10361
  0
LINE
  8
0
 10
14.6111
 20
8.10361
 11
14
 21
8.268
  0
LINE
  8
0
 10
14
 20
8.268
 11
13.268
 21
9
  0
LINE
  8
0
 10
13.268
 20
9
 11
12.999
 21
10
  0
LINE
  8
0
 10
37
 20
-40
 11
37.0144
 21
-39.7059
  0
LINE
  8
0
 10
37.0144
 20
-39.7059
 11
37.0576
 21
-39.4147
  0
LINE
  8
0
 10
37.0576
 20
-39.4147
 11
37.1292
 21
-39.1291
  0
LINE
  8
0
 10
37.1292
 20
-39.1291
 11
37.2284
 21
-38.8519
  0
LINE
  8
0
 10
37.2284
 20
-38.8519
 11
37.3542
 21
-38.5858
  0
LINE
  8
0
 10
37.3542
 20
-38.5858
 11
37.5056
 21
-38.3333
  0
LINE
  8
0
 10
37.5056
 20
-38.3333
 11
37.681
 21
-38.0968
  0
LINE
  8
0
 10
37.681
 20
-38.0968
 11
37.8787
 21
-37.8787
  0
LINE
  8
0
 10
37.8787
 20
-37.8787
 11
38.0968
 21
-37.681
  0
LINE
  8
0
 10
38.0968
 20
-37.681
 11
38.3333
 21
-37.5056
  0
LINE
  8
0
 10
38.3333
 20
-37.5056
 11
38.5858
 21
-37.3542
  0
LINE
  8
0
 10
38.5858
 20
-37.3542
 11
38.8519
 21
-37.2284
  0
LINE
  8
0
 10
38.8519
 20
-37.2284
 11
39.1291
 21
-37.1292
  0
LINE
  8
0
 10
39.1291
 20
-37.1292
 11
39.4147
 21
-37.0576
  0
LINE
  8
0
 10
39.4147
 20
-37.0576
 11
39.7059
 21
-37.0144
  0
LINE
  8
0
 10
39.7059
 20
-37.0144
 11
40
 21
-37
  0
LINE
  8
0
 10
40
 20
-37
 11
40.2941
 21
-37.0144
  0
LINE
  8
0
 10
40.2941
 20
-37.0144
 11
40.5853
 21
-37.0576
  0
LINE
  8
0
 10
40.5853
 20
-37.0576
 11
40.8709
 21
-37.1292
  0
LINE
  8
0
 10
40.8709
 20
-37.1292
 11
41.148
 21
-37.2284
  0
LINE
  8
0
 10
41.148
 20
-37.2284
 11
41.4142
 21
-37.3542
  0
LINE
  8
0
 10
41.4142
 20
-37.3542
 11
41.6667
 21
-37.5056
  0
LINE
  8
0
 10
41.6667
 20
-37.5056
 11
41.9032
 21
-37.681
  0
LINE
  8
0
 10
41.9032
 20
-37.681
 11
42.1213
 21
-37.8787
  0
LINE
  8
0
 10
42.1213
 20
-37.8787
 11
42.319
 21
-38.0968
  0
LINE
  8
0
 10
42.319
 20
-38.0968
 11
42.4944
 21
-38.3333
  0
LINE
  8
0
 10
42.4944
 20
-38.3333
 11
42.6458
 21
-38.5858
  0
LINE
  8
0
 10
42.6458
 20
-38.5858
 11
42.7716
 21
-38.8519
  0
LINE
  8
0
 10
42.7716
 20
-38.8519
 11
42.8708
 21
-39.1291
  0
LINE
  8
0
 10
42.8708
 20
-39.1291
 11
42.9424
 21
-39.4147
  0
LINE
  8
0
 10
42.9424
 20
-39.4147
 11
42.9856
 21
-39.7059
  0
LINE
  8
0
 10
42.9856
 20
-39.7059
 11
43
 21
-40
  0
LINE
  8
0
 10
43
 20
-40
 11
42.9856
 21
-40.2941
  0
LINE
  8
0
 10
42.9856
 20
-40.2941
 11
42.9424
 21
-40.5853
  0
LINE
  8
0
 10
42.9424
 20
-40.5853
 11
42.8708
 21
-40.8709
  0
LINE
  8
0
 10
42.8708
 20
-40.8709
 11
42.7716
 21
-41.148
  0
LINE
  8
0
 10
42.7716
 20
-41.148
 11
42.6458
 21
-41.4142
  0
LINE
  8
0
 10
42.6458
 20
-41.4142
 11
42.4944
 21
-41.6667
  0
LINE
  8
0
 10
42.4944
 20
-41.6667
 11
42.319
 21
-41.9032
  0
LINE
  8
0
 10
42.319
 20
-41.9032
 11
42.1213
 21
-42.1213
  0
LINE
  8
0
 10
42.1213
 20
-42.1213
 11
41.9032
 21
-42.319
  0
LINE
  8
0
 10
41.9032
 20
-42.319
 11
41.6667
 21
-42.4944
  0
LINE
  8
0
 10
41.6667
 20
-42.4944
 11
41.4142
 21
-42.6458
  0
LINE
  8
0
 10
41.4142
 20
-42.6458
 11
41.148
 21
-42.7716
  0
LINE
  8
0
 10
41.148
 20
-42.7716
 11
40.8709
 21
-42.8708
  0
LINE
  8
0
 10
40.8709
 20
-42.8708
 11
40.5853
 21
-42.9424
  0
LINE
  8
0
 10
40.5853
 20
-42.9424
 11
40.2941
 21
-42.9856
  0
LINE
  8
0
 10
40.2941
 20
-42.9856
 11
40
 21
-43
  0
LINE
  8
0
 10
40
 20
-43
 11
39.7059
 21
-42.9856
  0
LINE
  8
0
 10
39.7059
 20
-42.9856
 11
39.4147
 21
-42.9424
  0
LINE
  8
0
 10
39.4147
 20
-42.9424
 11
39.1291
 21
-42.8708
  0
LINE
  8
0
 10
39.1291
 20
-42.8708
 11
38.8519
 21
-42.7716
  0
LINE
  8
0
 10
38.8519
 20
-42.7716
 11
38.5858
 21
-42.6458
  0
LINE
  8
0
 10
38.5858
 20
-42.6458
 11
38.3333
 21
-42.4944
  0
LINE
  8
0
 10
38.3333
 20
-42.4944
 11
38.0968
 21
-42.319
  0
LINE
  8
0
 10
38.0968
 20
-42.319
 11
37.8787
 21
-42.1213
  0
LINE
  8
0
 10
37.8787
 20
-42.1213
 11
37.681
 21
-41.9032
  0
LINE
  8
0
 10
37.681
 20
-41.9032
 11
37.5056
 21
-41.6667
  0
LINE
  8
0
 10
37.5056
 20
-41.6667
 11
37.3542
 21
-41.4142
  0
LINE
  8
0
 10
37.3542
 20
-41.4142
 11
37.2284
 21
-41.148
  0
LINE
  8
0
 10
37.2284
 20
-41.148
 11
37.1292
 21
-40.8709
  0
LINE
  8
0
 10
37.1292
 20
-40.8709
 11
37.0576
 21
-40.5853
  0
LINE
  8
0
 10
37.0576
 20
-40.5853
 11
37.0144
 21
-40.2941
  0
LINE
  8
0
 10
37.0144
 20
-40.2941
 11
37
 21
-40
  0
LINE
  8
0
 10
37
 20
40
 11
37.0144
 21
40.2941
  0
LINE
  8
0
 10
37.0144
 20
40.2941
 11
37.0576
 21
40.5853
  0
LINE
  8
0
 10
37.0576
 20
40.5853
 11
37.1292
 21
40.8709
  0
LINE
  8
0
 10
37.1292
 20
40.8709
 11
37.2284
 21
41.148
  0
LINE
  8
0
 10
37.2284
 20
41.148
 11
37.3542
 21
41.4142
  0
LINE
  8
0
 10
37.3542
 20
41.4142
 11
37.5056
 21
41.6667
  0
LINE
  8
0
 10
37.5056
 20
41.6667
 11
37.681
 21
41.9032
  0
LINE
  8
0
 10
37.681
 20
41.9032
 11
37.8787
 21
42.1213
  0
LINE
  8
0
 10
37.8787
 20
42.1213
 11
38.0968
 21
42.319
  0
LINE
  8
0
 10
38.0968
 20
42.319
 11
38.3333
 21
42.4944
  0
LINE
  8
0
 10
38.3333
 20
42.4944
 11
38.5858
 21
42.6458
  0
LINE
  8
0
 10
38.5858
 20
42.6458
 11
38.8519
 21
42.7716
  0
LINE
  8
0
 10
38.8519
 20
42.7716
 11
39.1291
 21
42.8708
  0
LINE
  8
0
 10
39.1291
 20
42.8708
 11
39.4147
 21
42.9424
  0
LINE
  8
0
 10
39.4147
 20
42.9424
 11
39.7059
 21
42.9856
  0
LINE
  8
0
 10
39.7059
 20
42.9856
 11
40
 21
43
  0
LINE
  8
0
 10
40
 20
43
 11
40.2941
 21
42.9856
  0
LINE
  8
0
 10
40.2941
 20
42.9856
 11
40.5853
 21
42.9424
  0
LINE
  8
0
 10
40.5853
 20
42.9424
 11
40.8709
 21
42.8708
  0
LINE
  8
0
 10
40.8709
 20
42.8708
 11
41.148
 21
42.7716
  0
LINE
  8
0
 10
41.148
 20
42.7716
 11
41.4142
 21
42.6458
  0
LINE
  8
0
 10
41.4142
 20
42.6458
 11
41.6667
 21
42.4944
  0
LINE
  8
0
 10
41.6667
 20
42.4944
 11
41.9032
 21
42.319
  0
LINE
  8
0
 10
41.9032
 20
42.319
 11
42.1213
 21
42.1213
  0
LINE
  8
0
 10
42.1213
 20
42.1213
 11
42.319
 21
41.9032
  0
LINE
  8
0
 10
42.319
 20
41.9032
 11
42.4944
 21
41.6667
  0
LINE
  8
0
 10
42.4944
 20
41.6667
 11
42.6458
 21
41.4142
  0
LINE
  8
0
 10
42.6458
 20
41.4142
 11
42.7716
 21
41.148
  0
LINE
  8
0
 10
42.7716
 20
41.148
 11
42.8708
 21
40.8709
  0
LINE
  8
0
 10
42.8708
 20
40.8709
 11
42.9424
 21
40.5853
  0
LINE
  8
0
 10
42.9424
 20
40.5853
 11
42.9856
 21
40.2941
  0
LINE
  8
0
 10
42.9856
 20
40.2941
 11
43
 21
40
  0
LINE
  8
0
 10
43
 20
40
 11
42.9856
 21
39.7059
  0
LINE
  8
0
 10
42.9856
 20
39.7059
 11
42.9424
 21
39.4147
  0
LINE
  8
0
 10
42.9424
 20
39.4147
 11
42.8708
 21
39.1291
  0
LINE
  8
0
 10
42.8708
 20
39.1291
 11
42.7716
 21
38.8519
  0
LINE
  8
0
 10
42.7716
 20
38.8519
 11
42.6458
 21
38.5858
  0
LINE
  8
0
 10
42.6458
 20
38.5858
 11
42.4944
 21
38.3333
  0
LINE
  8
0
 10
42.4944
 20
38.3333
 11
42.319
 21
38.0968
  0
LINE
  8
0
 10
42.319
 20
38.0968
 11
42.1213
 21
37.8787
  0
LINE
  8
0
 10
42.1213
 20
37.8787
 11
41.9032
 21
37.681
  0
LINE
  8
0
 10
41.9032
 20
37.681
 11
41.6667
 21
37.5056
  0
LINE
  8
0
 10
41.6667
 20
37.5056
 11
41.4142
 21
37.3542
  0
LINE
  8
0
 10
41.4142
 20
37.3542
 11
41.148
 21
37.2284
  0
LINE
  8
0
 10
41.148
 20
37.2284
 11
40.8709
 21
37.1292
  0
LINE
  8
0
 10
40.8709
 20
37.1292
 11
40.5853
 21
37.0576
  0
LINE
  8
0
 10
40.5853
 20
37.0576
 11
40.2941
 21
37.0144
  0
LINE
  8
0
 10
40.2941
 20
37.0144
 11
40
 21
37
  0
LINE
  8
0
 10
40
 20
37
 11
39.7059
 21
37.0144
  0
LINE
  8
0
 10
39.7059
 20
37.0144
 11
39.4147
 21
37.0576
  0
LINE
  8
0
 10
39.4147
 20
37.0576
 11
39.1291
 21
37.1292
  0
LINE
  8
0
 10
39.1291
 20
37.1292
 11
38.8519
 21
37.2284
  0
LINE
  8
0
 10
38.8519
 20
37.2284
 11
38.5858
 21
37.3542
  0
LINE
  8
0
 10
38.5858
 20
37.3542
 11
38.3333
 21
37.5056
  0
LINE
  8
0
 10
38.3333
 20
37.5056
 11
38.0968
 21
37.681
  0
LINE
  8
0
 10
38.0968
 20
37.681
 11
37.8787
 21
37.8787
  0
LINE
  8
0
 10
37.8787
 20
37.8787
 11
37.681
 21
38.0968
  0
LINE
  8
0
 10
37.681
 20
38.0968
 11
37.5056
 21
38.3333
  0
LINE
  8
0
 10
37.5056
 20
38.3333
 11
37.3542
 21
38.5858
  0
LINE
  8
0
 10
37.3542
 20
38.5858
 11
37.2284
 21
38.8519
  0
LINE
  8
0
 10
37.2284
 20
38.8519
 11
37.1292
 21
39.1291
  0
LINE
  8
0
 10
37.1292
 20
39.1291
 11
37.0576
 21
39.4147
  0
LINE
  8
0
 10
37.0576
 20
39.4147
 11
37.0144
 21
39.7059
  0
LINE
  8
0
 10
37.0144
 20
39.7059
 11
37
 21
40
  0
LINE
  8
0
 10
-9
 20
0.00501919
 11
-8.696
 21
1.531
  0
LINE
  8
0
 10
-8.696
 20
1.531
 11
-7.829
 21
2.829
  0
LINE
  8
0
 10
-7.829
 20
2.829
 11
-6.63917
 21
3.62375
  0
LINE
  8
0
 10
-6.63917
 20
3.62375
 11
-6.531
 21
3.696
  0
LINE
  8
0
 10
-6.531
 20
3.696
 11
-5.13679
 21
3.97375
  0
LINE
  8
0
 10
-5.13679
 20
3.97375
 11
-5.01004
 21
3.999
  0
LINE
  8
0
 10
-5.01004
 20
3.999
 11
-9
 21
3.999
  0
LINE
  8
0
 10
-9
 20
3.999
 11
-9
 21
0.00501919
  0
ENDSEC
  0
SECTION
  2
OBJECTS
  0
DICTIONARY
  0
ENDSEC
  0
EOF
