  0
SECTION
  2
BLOCKS
  0
ENDSEC
  0
SECTION
  2
ENTITIES
  0
LINE
  8
0
 10
32.9405
 20
-59.8555
 11
35.8527
 21
-59.4236
  0
LINE
  8
0
 10
35.8527
 20
-59.4236
 11
38.7085
 21
-58.7082
  0
LINE
  8
0
 10
38.7085
 20
-58.7082
 11
41.4805
 21
-57.7164
  0
LINE
  8
0
 10
41.4805
 20
-57.7164
 11
44.1419
 21
-56.4576
  0
LINE
  8
0
 10
44.1419
 20
-56.4576
 11
46.6671
 21
-54.9441
  0
LINE
  8
0
 10
46.6671
 20
-54.9441
 11
49.0318
 21
-53.1903
  0
LINE
  8
0
 10
49.0318
 20
-53.1903
 11
51.2132
 21
-51.2132
  0
LINE
  8
0
 10
51.2132
 20
-51.2132
 11
53.1903
 21
-49.0318
  0
LINE
  8
0
 10
53.1903
 20
-49.0318
 11
54.9441
 21
-46.6671
  0
LINE
  8
0
 10
54.9441
 20
-46.6671
 11
56.4576
 21
-44.1419
  0
LINE
  8
0
 10
56.4576
 20
-44.1419
 11
57.7164
 21
-41.4805
  0
LINE
  8
0
 10
57.7164
 20
-41.4805
 11
58.7082
 21
-38.7085
  0
LINE
  8
0
 10
58.7082
 20
-38.7085
 11
59.4236
 21
-35.8527
  0
LINE
  8
0
 10
59.4236
 20
-35.8527
 11
59.8555
 21
-32.9405
  0
LINE
  8
0
 10
59.8555
 20
-32.9405
 11
60
 21
-30
  0
LINE
  8
0
 10
60
 20
-30
 11
60
 21
30
  0
LINE
  8
0
 10
60
 20
30
 11
59.8555
 21
32.9405
  0
LINE
  8
0
 10
59.8555
 20
32.9405
 11
59.4236
 21
35.8527
  0
LINE
  8
0
 10
59.4236
 20
35.8527
 11
58.7082
 21
38.7085
  0
LINE
  8
0
 10
58.7082
 20
38.7085
 11
57.7164
 21
41.4805
  0
LINE
  8
0
 10
57.7164
 20
41.4805
 11
56.4576
 21
44.1419
  0
LINE
  8
0
 10
56.4576
 20
44.1419
 11
54.9441
 21
46.6671
  0
LINE
  8
0
 10
54.9441
 20
46.6671
 11
53.1903
 21
49.0318
  0
LINE
  8
0
 10
53.1903
 20
49.0318
 11
51.2132
 21
51.2132
  0
LINE
  8
0
 10
51.2132
 20
51.2132
 11
49.0318
 21
53.1903
  0
LINE
  8
0
 10
49.0318
 20
53.1903
 11
46.6671
 21
54.9441
  0
LINE
  8
0
 10
46.6671
 20
54.9441
 11
44.1419
 21
56.4576
  0
LINE
  8
0
 10
44.1419
 20
56.4576
 11
41.4805
 21
57.7164
  0
LINE
  8
0
 10
41.4805
 20
57.7164
 11
38.7085
 21
58.7082
  0
LINE
  8
0
 10
38.7085
 20
58.7082
 11
35.8527
 21
59.4236
  0
LINE
  8
0
 10
35.8527
 20
59.4236
 11
32.9405
 21
59.8555
  0
LINE
  8
0
 10
32.9405
 20
59.8555
 11
30
 21
60
  0
LINE
  8
0
 10
30
 20
60
 11
-30
 21
60
  0
LINE
  8
0
 10
-30
 20
60
 11
-32.9405
 21
59.8555
  0
LINE
  8
0
 10
-32.9405
 20
59.8555
 11
-35.8527
 21
59.4236
  0
LINE
  8
0
 10
-35.8527
 20
59.4236
 11
-38.7085
 21
58.7082
  0
LINE
  8
0
 10
-38.7085
 20
58.7082
 11
-41.4805
 21
57.7164
  0
LINE
  8
0
 10
-41.4805
 20
57.7164
 11
-44.1419
 21
56.4576
  0
LINE
  8
0
 10
-44.1419
 20
56.4576
 11
-46.6671
 21
54.9441
  0
LINE
  8
0
 10
-46.6671
 20
54.9441
 11
-49.0318
 21
53.1903
  0
LINE
  8
0
 10
-49.0318
 20
53.1903
 11
-51.2132
 21
51.2132
  0
LINE
  8
0
 10
-51.2132
 20
51.2132
 11
-53.1903
 21
49.0318
  0
LINE
  8
0
 10
-53.1903
 20
49.0318
 11
-54.9441
 21
46.6671
  0
LINE
  8
0
 10
-54.9441
 20
46.6671
 11
-56.4576
 21
44.1419
  0
LINE
  8
0
 10
-56.4576
 20
44.1419
 11
-57.7164
 21
41.4805
  0
LINE
  8
0
 10
-57.7164
 20
41.4805
 11
-58.7082
 21
38.7085
  0
LINE
  8
0
 10
-58.7082
 20
38.7085
 11
-59.4236
 21
35.8527
  0
LINE
  8
0
 10
-59.4236
 20
35.8527
 11
-59.8555
 21
32.9405
  0
LINE
  8
0
 10
-59.8555
 20
32.9405
 11
-60
 21
30
  0
LINE
  8
0
 10
-60
 20
30
 11
-60
 21
-30
  0
LINE
  8
0
 10
-60
 20
-30
 11
-59.8555
 21
-32.9405
  0
LINE
  8
0
 10
-59.8555
 20
-32.9405
 11
-59.4236
 21
-35.8527
  0
LINE
  8
0
 10
-59.4236
 20
-35.8527
 11
-58.7082
 21
-38.7085
  0
LINE
  8
0
 10
-58.7082
 20
-38.7085
 11
-57.7164
 21
-41.4805
  0
LINE
  8
0
 10
-57.7164
 20
-41.4805
 11
-56.4576
 21
-44.1419
  0
LINE
  8
0
 10
-56.4576
 20
-44.1419
 11
-54.9441
 21
-46.6671
  0
LINE
  8
0
 10
-54.9441
 20
-46.6671
 11
-53.1903
 21
-49.0318
  0
LINE
  8
0
 10
-53.1903
 20
-49.0318
 11
-51.2132
 21
-51.2132
  0
LINE
  8
0
 10
-51.2132
 20
-51.2132
 11
-49.0318
 21
-53.1903
  0
LINE
  8
0
 10
-49.0318
 20
-53.1903
 11
-46.6671
 21
-54.9441
  0
LINE
  8
0
 10
-46.6671
 20
-54.9441
 11
-44.1419
 21
-56.4576
  0
LINE
  8
0
 10
-44.1419
 20
-56.4576
 11
-41.4805
 21
-57.7164
  0
LINE
  8
0
 10
-41.4805
 20
-57.7164
 11
-38.7085
 21
-58.7082
  0
LINE
  8
0
 10
-38.7085
 20
-58.7082
 11
-35.8527
 21
-59.4236
  0
LINE
  8
0
 10
-35.8527
 20
-59.4236
 11
-32.9405
 21
-59.8555
  0
LINE
  8
0
 10
-32.9405
 20
-59.8555
 11
-30
 21
-60
  0
LINE
  8
0
 10
-30
 20
-60
 11
30
 21
-60
  0
LINE
  8
0
 10
30
 20
-60
 11
32.9405
 21
-59.8555
  0
LINE
  8
0
 10
39.7059
 20
37.0144
 11
39.4147
 21
37.0576
  0
LINE
  8
0
 10
39.4147
 20
37.0576
 11
39.1291
 21
37.1292
  0
LINE
  8
0
 10
39.1291
 20
37.1292
 11
38.8519
 21
37.2284
  0
LINE
  8
0
 10
38.8519
 20
37.2284
 11
38.5858
 21
37.3542
  0
LINE
  8
0
 10
38.5858
 20
37.3542
 11
38.3333
 21
37.5056
  0
LINE
  8
0
 10
38.3333
 20
37.5056
 11
38.0968
 21
37.681
  0
LINE
  8
0
 10
38.0968
 20
37.681
 11
37.8787
 21
37.8787
  0
LINE
  8
0
 10
37.8787
 20
37.8787
 11
37.681
 21
38.0968
  0
LINE
  8
0
 10
37.681
 20
38.0968
 11
37.5056
 21
38.3333
  0
LINE
  8
0
 10
37.5056
 20
38.3333
 11
37.3542
 21
38.5858
  0
LINE
  8
0
 10
37.3542
 20
38.5858
 11
37.2284
 21
38.8519
  0
LINE
  8
0
 10
37.2284
 20
38.8519
 11
37.1292
 21
39.1291
  0
LINE
  8
0
 10
37.1292
 20
39.1291
 11
37.0576
 21
39.4147
  0
LINE
  8
0
 10
37.0576
 20
39.4147
 11
37.0144
 21
39.7059
  0
LINE
  8
0
 10
37.0144
 20
39.7059
 11
37
 21
40
  0
LINE
  8
0
 10
37
 20
40
 11
37.0144
 21
40.2941
  0
LINE
  8
0
 10
37.0144
 20
40.2941
 11
37.0576
 21
40.5853
  0
LINE
  8
0
 10
37.0576
 20
40.5853
 11
37.1292
 21
40.8708
  0
LINE
  8
0
 10
37.1292
 20
40.8708
 11
37.2284
 21
41.148
  0
LINE
  8
0
 10
37.2284
 20
41.148
 11
37.3542
 21
41.4142
  0
LINE
  8
0
 10
37.3542
 20
41.4142
 11
37.5056
 21
41.6667
  0
LINE
  8
0
 10
37.5056
 20
41.6667
 11
37.681
 21
41.9032
  0
LINE
  8
0
 10
37.681
 20
41.9032
 11
37.8787
 21
42.1213
  0
LINE
  8
0
 10
37.8787
 20
42.1213
 11
38.0968
 21
42.319
  0
LINE
  8
0
 10
38.0968
 20
42.319
 11
38.3333
 21
42.4944
  0
LINE
  8
0
 10
38.3333
 20
42.4944
 11
38.5858
 21
42.6458
  0
LINE
  8
0
 10
38.5858
 20
42.6458
 11
38.8519
 21
42.7716
  0
LINE
  8
0
 10
38.8519
 20
42.7716
 11
39.1291
 21
42.8708
  0
LINE
  8
0
 10
39.1291
 20
42.8708
 11
39.4147
 21
42.9424
  0
LINE
  8
0
 10
39.4147
 20
42.9424
 11
39.7059
 21
42.9855
  0
LINE
  8
0
 10
39.7059
 20
42.9855
 11
40
 21
43
  0
LINE
  8
0
 10
40
 20
43
 11
40.2941
 21
42.9855
  0
LINE
  8
0
 10
40.2941
 20
42.9855
 11
40.5853
 21
42.9424
  0
LINE
  8
0
 10
40.5853
 20
42.9424
 11
40.8708
 21
42.8708
  0
LINE
  8
0
 10
40.8708
 20
42.8708
 11
41.148
 21
42.7716
  0
LINE
  8
0
 10
41.148
 20
42.7716
 11
41.4142
 21
42.6458
  0
LINE
  8
0
 10
41.4142
 20
42.6458
 11
41.6667
 21
42.4944
  0
LINE
  8
0
 10
41.6667
 20
42.4944
 11
41.9032
 21
42.319
  0
LINE
  8
0
 10
41.9032
 20
42.319
 11
42.1213
 21
42.1213
  0
LINE
  8
0
 10
42.1213
 20
42.1213
 11
42.319
 21
41.9032
  0
LINE
  8
0
 10
42.319
 20
41.9032
 11
42.4944
 21
41.6667
  0
LINE
  8
0
 10
42.4944
 20
41.6667
 11
42.6458
 21
41.4142
  0
LINE
  8
0
 10
42.6458
 20
41.4142
 11
42.7716
 21
41.148
  0
LINE
  8
0
 10
42.7716
 20
41.148
 11
42.8708
 21
40.8708
  0
LINE
  8
0
 10
42.8708
 20
40.8708
 11
42.9424
 21
40.5853
  0
LINE
  8
0
 10
42.9424
 20
40.5853
 11
42.9855
 21
40.2941
  0
LINE
  8
0
 10
42.9855
 20
40.2941
 11
43
 21
40
  0
LINE
  8
0
 10
43
 20
40
 11
42.9855
 21
39.7059
  0
LINE
  8
0
 10
42.9855
 20
39.7059
 11
42.9424
 21
39.4147
  0
LINE
  8
0
 10
42.9424
 20
39.4147
 11
42.8708
 21
39.1291
  0
LINE
  8
0
 10
42.8708
 20
39.1291
 11
42.7716
 21
38.8519
  0
LINE
  8
0
 10
42.7716
 20
38.8519
 11
42.6458
 21
38.5858
  0
LINE
  8
0
 10
42.6458
 20
38.5858
 11
42.4944
 21
38.3333
  0
LINE
  8
0
 10
42.4944
 20
38.3333
 11
42.319
 21
38.0968
  0
LINE
  8
0
 10
42.319
 20
38.0968
 11
42.1213
 21
37.8787
  0
LINE
  8
0
 10
42.1213
 20
37.8787
 11
41.9032
 21
37.681
  0
LINE
  8
0
 10
41.9032
 20
37.681
 11
41.6667
 21
37.5056
  0
LINE
  8
0
 10
41.6667
 20
37.5056
 11
41.4142
 21
37.3542
  0
LINE
  8
0
 10
41.4142
 20
37.3542
 11
41.148
 21
37.2284
  0
LINE
  8
0
 10
41.148
 20
37.2284
 11
40.8708
 21
37.1292
  0
LINE
  8
0
 10
40.8708
 20
37.1292
 11
40.5853
 21
37.0576
  0
LINE
  8
0
 10
40.5853
 20
37.0576
 11
40.2941
 21
37.0144
  0
LINE
  8
0
 10
40.2941
 20
37.0144
 11
40
 21
37
  0
LINE
  8
0
 10
40
 20
37
 11
39.7059
 21
37.0144
  0
LINE
  8
0
 10
-40.2941
 20
37.0144
 11
-40.5853
 21
37.0576
  0
LINE
  8
0
 10
-40.5853
 20
37.0576
 11
-40.8708
 21
37.1292
  0
LINE
  8
0
 10
-40.8708
 20
37.1292
 11
-41.148
 21
37.2284
  0
LINE
  8
0
 10
-41.148
 20
37.2284
 11
-41.4142
 21
37.3542
  0
LINE
  8
0
 10
-41.4142
 20
37.3542
 11
-41.6667
 21
37.5056
  0
LINE
  8
0
 10
-41.6667
 20
37.5056
 11
-41.9032
 21
37.681
  0
LINE
  8
0
 10
-41.9032
 20
37.681
 11
-42.1213
 21
37.8787
  0
LINE
  8
0
 10
-42.1213
 20
37.8787
 11
-42.319
 21
38.0968
  0
LINE
  8
0
 10
-42.319
 20
38.0968
 11
-42.4944
 21
38.3333
  0
LINE
  8
0
 10
-42.4944
 20
38.3333
 11
-42.6458
 21
38.5858
  0
LINE
  8
0
 10
-42.6458
 20
38.5858
 11
-42.7716
 21
38.8519
  0
LINE
  8
0
 10
-42.7716
 20
38.8519
 11
-42.8708
 21
39.1291
  0
LINE
  8
0
 10
-42.8708
 20
39.1291
 11
-42.9424
 21
39.4147
  0
LINE
  8
0
 10
-42.9424
 20
39.4147
 11
-42.9855
 21
39.7059
  0
LINE
  8
0
 10
-42.9855
 20
39.7059
 11
-43
 21
40
  0
LINE
  8
0
 10
-43
 20
40
 11
-42.9855
 21
40.2941
  0
LINE
  8
0
 10
-42.9855
 20
40.2941
 11
-42.9424
 21
40.5853
  0
LINE
  8
0
 10
-42.9424
 20
40.5853
 11
-42.8708
 21
40.8708
  0
LINE
  8
0
 10
-42.8708
 20
40.8708
 11
-42.7716
 21
41.148
  0
LINE
  8
0
 10
-42.7716
 20
41.148
 11
-42.6458
 21
41.4142
  0
LINE
  8
0
 10
-42.6458
 20
41.4142
 11
-42.4944
 21
41.6667
  0
LINE
  8
0
 10
-42.4944
 20
41.6667
 11
-42.319
 21
41.9032
  0
LINE
  8
0
 10
-42.319
 20
41.9032
 11
-42.1213
 21
42.1213
  0
LINE
  8
0
 10
-42.1213
 20
42.1213
 11
-41.9032
 21
42.319
  0
LINE
  8
0
 10
-41.9032
 20
42.319
 11
-41.6667
 21
42.4944
  0
LINE
  8
0
 10
-41.6667
 20
42.4944
 11
-41.4142
 21
42.6458
  0
LINE
  8
0
 10
-41.4142
 20
42.6458
 11
-41.148
 21
42.7716
  0
LINE
  8
0
 10
-41.148
 20
42.7716
 11
-40.8708
 21
42.8708
  0
LINE
  8
0
 10
-40.8708
 20
42.8708
 11
-40.5853
 21
42.9424
  0
LINE
  8
0
 10
-40.5853
 20
42.9424
 11
-40.2941
 21
42.9855
  0
LINE
  8
0
 10
-40.2941
 20
42.9855
 11
-40
 21
43
  0
LINE
  8
0
 10
-40
 20
43
 11
-39.7059
 21
42.9855
  0
LINE
  8
0
 10
-39.7059
 20
42.9855
 11
-39.4147
 21
42.9424
  0
LINE
  8
0
 10
-39.4147
 20
42.9424
 11
-39.1291
 21
42.8708
  0
LINE
  8
0
 10
-39.1291
 20
42.8708
 11
-38.8519
 21
42.7716
  0
LINE
  8
0
 10
-38.8519
 20
42.7716
 11
-38.5858
 21
42.6458
  0
LINE
  8
0
 10
-38.5858
 20
42.6458
 11
-38.3333
 21
42.4944
  0
LINE
  8
0
 10
-38.3333
 20
42.4944
 11
-38.0968
 21
42.319
  0
LINE
  8
0
 10
-38.0968
 20
42.319
 11
-37.8787
 21
42.1213
  0
LINE
  8
0
 10
-37.8787
 20
42.1213
 11
-37.681
 21
41.9032
  0
LINE
  8
0
 10
-37.681
 20
41.9032
 11
-37.5056
 21
41.6667
  0
LINE
  8
0
 10
-37.5056
 20
41.6667
 11
-37.3542
 21
41.4142
  0
LINE
  8
0
 10
-37.3542
 20
41.4142
 11
-37.2284
 21
41.148
  0
LINE
  8
0
 10
-37.2284
 20
41.148
 11
-37.1292
 21
40.8708
  0
LINE
  8
0
 10
-37.1292
 20
40.8708
 11
-37.0576
 21
40.5853
  0
LINE
  8
0
 10
-37.0576
 20
40.5853
 11
-37.0144
 21
40.2941
  0
LINE
  8
0
 10
-37.0144
 20
40.2941
 11
-37
 21
40
  0
LINE
  8
0
 10
-37
 20
40
 11
-37.0144
 21
39.7059
  0
LINE
  8
0
 10
-37.0144
 20
39.7059
 11
-37.0576
 21
39.4147
  0
LINE
  8
0
 10
-37.0576
 20
39.4147
 11
-37.1292
 21
39.1291
  0
LINE
  8
0
 10
-37.1292
 20
39.1291
 11
-37.2284
 21
38.8519
  0
LINE
  8
0
 10
-37.2284
 20
38.8519
 11
-37.3542
 21
38.5858
  0
LINE
  8
0
 10
-37.3542
 20
38.5858
 11
-37.5056
 21
38.3333
  0
LINE
  8
0
 10
-37.5056
 20
38.3333
 11
-37.681
 21
38.0968
  0
LINE
  8
0
 10
-37.681
 20
38.0968
 11
-37.8787
 21
37.8787
  0
LINE
  8
0
 10
-37.8787
 20
37.8787
 11
-38.0968
 21
37.681
  0
LINE
  8
0
 10
-38.0968
 20
37.681
 11
-38.3333
 21
37.5056
  0
LINE
  8
0
 10
-38.3333
 20
37.5056
 11
-38.5858
 21
37.3542
  0
LINE
  8
0
 10
-38.5858
 20
37.3542
 11
-38.8519
 21
37.2284
  0
LINE
  8
0
 10
-38.8519
 20
37.2284
 11
-39.1291
 21
37.1292
  0
LINE
  8
0
 10
-39.1291
 20
37.1292
 11
-39.4147
 21
37.0576
  0
LINE
  8
0
 10
-39.4147
 20
37.0576
 11
-39.7059
 21
37.0144
  0
LINE
  8
0
 10
-39.7059
 20
37.0144
 11
-40
 21
37
  0
LINE
  8
0
 10
-40
 20
37
 11
-40.2941
 21
37.0144
  0
LINE
  8
0
 10
-2.00934
 20
-20.4013
 11
-3.99934
 21
-20.1061
  0
LINE
  8
0
 10
-3.99934
 20
-20.1061
 11
-5.95082
 21
-19.6173
  0
LINE
  8
0
 10
-5.95082
 20
-19.6173
 11
-7.845
 21
-18.9395
  0
LINE
  8
0
 10
-7.845
 20
-18.9395
 11
-9.66362
 21
-18.0794
  0
LINE
  8
0
 10
-9.66362
 20
-18.0794
 11
-11.3892
 21
-17.0451
  0
LINE
  8
0
 10
-11.3892
 20
-17.0451
 11
-13.0051
 21
-15.8467
  0
LINE
  8
0
 10
-13.0051
 20
-15.8467
 11
-14.4957
 21
-14.4957
  0
LINE
  8
0
 10
-14.4957
 20
-14.4957
 11
-15.8467
 21
-13.0051
  0
LINE
  8
0
 10
-15.8467
 20
-13.0051
 11
-17.0451
 21
-11.3892
  0
LINE
  8
0
 10
-17.0451
 20
-11.3892
 11
-18.0794
 21
-9.66362
  0
LINE
  8
0
 10
-18.0794
 20
-9.66362
 11
-18.9395
 21
-7.845
  0
LINE
  8
0
 10
-18.9395
 20
-7.845
 11
-19.6173
 21
-5.95082
  0
LINE
  8
0
 10
-19.6173
 20
-5.95082
 11
-20.1061
 21
-3.99934
  0
LINE
  8
0
 10
-20.1061
 20
-3.99934
 11
-20.4013
 21
-2.00934
  0
LINE
  8
0
 10
-20.4013
 20
-2.00934
 11
-20.5
 21
0
  0
LINE
  8
0
 10
-20.5
 20
0
 11
-20.4013
 21
2.00934
  0
LINE
  8
0
 10
-20.4013
 20
2.00934
 11
-20.1061
 21
3.99934
  0
LINE
  8
0
 10
-20.1061
 20
3.99934
 11
-19.6173
 21
5.95082
  0
LINE
  8
0
 10
-19.6173
 20
5.95082
 11
-18.9395
 21
7.845
  0
LINE
  8
0
 10
-18.9395
 20
7.845
 11
-18.0794
 21
9.66362
  0
LINE
  8
0
 10
-18.0794
 20
9.66362
 11
-17.0451
 21
11.3892
  0
LINE
  8
0
 10
-17.0451
 20
11.3892
 11
-15.8467
 21
13.0051
  0
LINE
  8
0
 10
-15.8467
 20
13.0051
 11
-14.4957
 21
14.4957
  0
LINE
  8
0
 10
-14.4957
 20
14.4957
 11
-13.0051
 21
15.8467
  0
LINE
  8
0
 10
-13.0051
 20
15.8467
 11
-11.3892
 21
17.0451
  0
LINE
  8
0
 10
-11.3892
 20
17.0451
 11
-9.66362
 21
18.0794
  0
LINE
  8
0
 10
-9.66362
 20
18.0794
 11
-7.845
 21
18.9395
  0
LINE
  8
0
 10
-7.845
 20
18.9395
 11
-5.95082
 21
19.6173
  0
LINE
  8
0
 10
-5.95082
 20
19.6173
 11
-3.99934
 21
20.1061
  0
LINE
  8
0
 10
-3.99934
 20
20.1061
 11
-2.00934
 21
20.4013
  0
LINE
  8
0
 10
-2.00934
 20
20.4013
 11
0
 21
20.5
  0
LINE
  8
0
 10
0
 20
20.5
 11
2.00934
 21
20.4013
  0
LINE
  8
0
 10
2.00934
 20
20.4013
 11
3.99934
 21
20.1061
  0
LINE
  8
0
 10
3.99934
 20
20.1061
 11
5.95082
 21
19.6173
  0
LINE
  8
0
 10
5.95082
 20
19.6173
 11
7.845
 21
18.9395
  0
LINE
  8
0
 10
7.845
 20
18.9395
 11
9.66362
 21
18.0794
  0
LINE
  8
0
 10
9.66362
 20
18.0794
 11
11.3892
 21
17.0451
  0
LINE
  8
0
 10
11.3892
 20
17.0451
 11
13.0051
 21
15.8467
  0
LINE
  8
0
 10
13.0051
 20
15.8467
 11
14.4957
 21
14.4957
  0
LINE
  8
0
 10
14.4957
 20
14.4957
 11
15.8467
 21
13.0051
  0
LINE
  8
0
 10
15.8467
 20
13.0051
 11
17.0451
 21
11.3892
  0
LINE
  8
0
 10
17.0451
 20
11.3892
 11
18.0794
 21
9.66362
  0
LINE
  8
0
 10
18.0794
 20
9.66362
 11
18.9395
 21
7.845
  0
LINE
  8
0
 10
18.9395
 20
7.845
 11
19.6173
 21
5.95082
  0
LINE
  8
0
 10
19.6173
 20
5.95082
 11
20.1061
 21
3.99934
  0
LINE
  8
0
 10
20.1061
 20
3.99934
 11
20.4013
 21
2.00934
  0
LINE
  8
0
 10
20.4013
 20
2.00934
 11
20.5
 21
0
  0
LINE
  8
0
 10
20.5
 20
0
 11
20.4013
 21
-2.00934
  0
LINE
  8
0
 10
20.4013
 20
-2.00934
 11
20.1061
 21
-3.99934
  0
LINE
  8
0
 10
20.1061
 20
-3.99934
 11
19.6173
 21
-5.95082
  0
LINE
  8
0
 10
19.6173
 20
-5.95082
 11
18.9395
 21
-7.845
  0
LINE
  8
0
 10
18.9395
 20
-7.845
 11
18.0794
 21
-9.66362
  0
LINE
  8
0
 10
18.0794
 20
-9.66362
 11
17.0451
 21
-11.3892
  0
LINE
  8
0
 10
17.0451
 20
-11.3892
 11
15.8467
 21
-13.0051
  0
LINE
  8
0
 10
15.8467
 20
-13.0051
 11
14.4957
 21
-14.4957
  0
LINE
  8
0
 10
14.4957
 20
-14.4957
 11
13.0051
 21
-15.8467
  0
LINE
  8
0
 10
13.0051
 20
-15.8467
 11
11.3892
 21
-17.0451
  0
LINE
  8
0
 10
11.3892
 20
-17.0451
 11
9.66362
 21
-18.0794
  0
LINE
  8
0
 10
9.66362
 20
-18.0794
 11
7.845
 21
-18.9395
  0
LINE
  8
0
 10
7.845
 20
-18.9395
 11
5.95082
 21
-19.6173
  0
LINE
  8
0
 10
5.95082
 20
-19.6173
 11
3.99934
 21
-20.1061
  0
LINE
  8
0
 10
3.99934
 20
-20.1061
 11
2.00934
 21
-20.4013
  0
LINE
  8
0
 10
2.00934
 20
-20.4013
 11
0
 21
-20.5
  0
LINE
  8
0
 10
0
 20
-20.5
 11
-2.00934
 21
-20.4013
  0
LINE
  8
0
 10
1.71529
 20
-17.4157
 11
3.41408
 21
-17.1637
  0
LINE
  8
0
 10
3.41408
 20
-17.1637
 11
5.07997
 21
-16.7464
  0
LINE
  8
0
 10
5.07997
 20
-16.7464
 11
6.69695
 21
-16.1679
  0
LINE
  8
0
 10
6.69695
 20
-16.1679
 11
8.24944
 21
-15.4336
  0
LINE
  8
0
 10
8.24944
 20
-15.4336
 11
9.72247
 21
-14.5507
  0
LINE
  8
0
 10
9.72247
 20
-14.5507
 11
11.1019
 21
-13.5277
  0
LINE
  8
0
 10
11.1019
 20
-13.5277
 11
12.3744
 21
-12.3744
  0
LINE
  8
0
 10
12.3744
 20
-12.3744
 11
13.5277
 21
-11.1019
  0
LINE
  8
0
 10
13.5277
 20
-11.1019
 11
14.5507
 21
-9.72247
  0
LINE
  8
0
 10
14.5507
 20
-9.72247
 11
15.4336
 21
-8.24944
  0
LINE
  8
0
 10
15.4336
 20
-8.24944
 11
16.1679
 21
-6.69695
  0
LINE
  8
0
 10
16.1679
 20
-6.69695
 11
16.7464
 21
-5.07997
  0
LINE
  8
0
 10
16.7464
 20
-5.07997
 11
17.1637
 21
-3.41408
  0
LINE
  8
0
 10
17.1637
 20
-3.41408
 11
17.4157
 21
-1.71529
  0
LINE
  8
0
 10
17.4157
 20
-1.71529
 11
17.5
 21
0
  0
LINE
  8
0
 10
17.5
 20
0
 11
17.4157
 21
1.71529
  0
LINE
  8
0
 10
17.4157
 20
1.71529
 11
17.1637
 21
3.41408
  0
LINE
  8
0
 10
17.1637
 20
3.41408
 11
16.7464
 21
5.07997
  0
LINE
  8
0
 10
16.7464
 20
5.07997
 11
16.1679
 21
6.69695
  0
LINE
  8
0
 10
16.1679
 20
6.69695
 11
15.4336
 21
8.24944
  0
LINE
  8
0
 10
15.4336
 20
8.24944
 11
14.5507
 21
9.72247
  0
LINE
  8
0
 10
14.5507
 20
9.72247
 11
13.5277
 21
11.1019
  0
LINE
  8
0
 10
13.5277
 20
11.1019
 11
12.3744
 21
12.3744
  0
LINE
  8
0
 10
12.3744
 20
12.3744
 11
11.1019
 21
13.5277
  0
LINE
  8
0
 10
11.1019
 20
13.5277
 11
9.72247
 21
14.5507
  0
LINE
  8
0
 10
9.72247
 20
14.5507
 11
8.24944
 21
15.4336
  0
LINE
  8
0
 10
8.24944
 20
15.4336
 11
6.69695
 21
16.1679
  0
LINE
  8
0
 10
6.69695
 20
16.1679
 11
5.07997
 21
16.7464
  0
LINE
  8
0
 10
5.07997
 20
16.7464
 11
3.41408
 21
17.1637
  0
LINE
  8
0
 10
3.41408
 20
17.1637
 11
1.71529
 21
17.4157
  0
LINE
  8
0
 10
1.71529
 20
17.4157
 11
0
 21
17.5
  0
LINE
  8
0
 10
0
 20
17.5
 11
-1.71529
 21
17.4157
  0
LINE
  8
0
 10
-1.71529
 20
17.4157
 11
-3.41408
 21
17.1637
  0
LINE
  8
0
 10
-3.41408
 20
17.1637
 11
-5.07997
 21
16.7464
  0
LINE
  8
0
 10
-5.07997
 20
16.7464
 11
-6.69695
 21
16.1679
  0
LINE
  8
0
 10
-6.69695
 20
16.1679
 11
-8.24944
 21
15.4336
  0
LINE
  8
0
 10
-8.24944
 20
15.4336
 11
-9.72247
 21
14.5507
  0
LINE
  8
0
 10
-9.72247
 20
14.5507
 11
-11.1019
 21
13.5277
  0
LINE
  8
0
 10
-11.1019
 20
13.5277
 11
-12.3744
 21
12.3744
  0
LINE
  8
0
 10
-12.3744
 20
12.3744
 11
-13.5277
 21
11.1019
  0
LINE
  8
0
 10
-13.5277
 20
11.1019
 11
-14.5507
 21
9.72247
  0
LINE
  8
0
 10
-14.5507
 20
9.72247
 11
-15.4336
 21
8.24944
  0
LINE
  8
0
 10
-15.4336
 20
8.24944
 11
-16.1679
 21
6.69695
  0
LINE
  8
0
 10
-16.1679
 20
6.69695
 11
-16.7464
 21
5.07997
  0
LINE
  8
0
 10
-16.7464
 20
5.07997
 11
-17.1637
 21
3.41408
  0
LINE
  8
0
 10
-17.1637
 20
3.41408
 11
-17.4157
 21
1.71529
  0
LINE
  8
0
 10
-17.4157
 20
1.71529
 11
-17.5
 21
0
  0
LINE
  8
0
 10
-17.5
 20
0
 11
-17.4157
 21
-1.71529
  0
LINE
  8
0
 10
-17.4157
 20
-1.71529
 11
-17.1637
 21
-3.41408
  0
LINE
  8
0
 10
-17.1637
 20
-3.41408
 11
-16.7464
 21
-5.07997
  0
LINE
  8
0
 10
-16.7464
 20
-5.07997
 11
-16.1679
 21
-6.69695
  0
LINE
  8
0
 10
-16.1679
 20
-6.69695
 11
-15.4336
 21
-8.24944
  0
LINE
  8
0
 10
-15.4336
 20
-8.24944
 11
-14.5507
 21
-9.72247
  0
LINE
  8
0
 10
-14.5507
 20
-9.72247
 11
-13.5277
 21
-11.1019
  0
LINE
  8
0
 10
-13.5277
 20
-11.1019
 11
-12.3744
 21
-12.3744
  0
LINE
  8
0
 10
-12.3744
 20
-12.3744
 11
-11.1019
 21
-13.5277
  0
LINE
  8
0
 10
-11.1019
 20
-13.5277
 11
-9.72247
 21
-14.5507
  0
LINE
  8
0
 10
-9.72247
 20
-14.5507
 11
-8.24944
 21
-15.4336
  0
LINE
  8
0
 10
-8.24944
 20
-15.4336
 11
-6.69695
 21
-16.1679
  0
LINE
  8
0
 10
-6.69695
 20
-16.1679
 11
-5.07997
 21
-16.7464
  0
LINE
  8
0
 10
-5.07997
 20
-16.7464
 11
-3.41408
 21
-17.1637
  0
LINE
  8
0
 10
-3.41408
 20
-17.1637
 11
-1.71529
 21
-17.4157
  0
LINE
  8
0
 10
-1.71529
 20
-17.4157
 11
0
 21
-17.5
  0
LINE
  8
0
 10
0
 20
-17.5
 11
1.71529
 21
-17.4157
  0
LINE
  8
0
 10
39.0688
 20
-9.45425
 11
38.1466
 21
-9.31746
  0
LINE
  8
0
 10
38.1466
 20
-9.31746
 11
37.2423
 21
-9.09093
  0
LINE
  8
0
 10
37.2423
 20
-9.09093
 11
36.3645
 21
-8.77686
  0
LINE
  8
0
 10
36.3645
 20
-8.77686
 11
35.5217
 21
-8.37825
  0
LINE
  8
0
 10
35.5217
 20
-8.37825
 11
34.7221
 21
-7.89896
  0
LINE
  8
0
 10
34.7221
 20
-7.89896
 11
33.9733
 21
-7.3436
  0
LINE
  8
0
 10
33.9733
 20
-7.3436
 11
33.2825
 21
-6.71751
  0
LINE
  8
0
 10
33.2825
 20
-6.71751
 11
32.6564
 21
-6.02673
  0
LINE
  8
0
 10
32.6564
 20
-6.02673
 11
32.101
 21
-5.27791
  0
LINE
  8
0
 10
32.101
 20
-5.27791
 11
31.6217
 21
-4.47826
  0
LINE
  8
0
 10
31.6217
 20
-4.47826
 11
31.2231
 21
-3.63548
  0
LINE
  8
0
 10
31.2231
 20
-3.63548
 11
30.9091
 21
-2.75769
  0
LINE
  8
0
 10
30.9091
 20
-2.75769
 11
30.6825
 21
-1.85335
  0
LINE
  8
0
 10
30.6825
 20
-1.85335
 11
30.5457
 21
-0.931152
  0
LINE
  8
0
 10
30.5457
 20
-0.931152
 11
30.5
 21
0
  0
LINE
  8
0
 10
30.5
 20
0
 11
30.5457
 21
0.931152
  0
LINE
  8
0
 10
30.5457
 20
0.931152
 11
30.6825
 21
1.85335
  0
LINE
  8
0
 10
30.6825
 20
1.85335
 11
30.9091
 21
2.75769
  0
LINE
  8
0
 10
30.9091
 20
2.75769
 11
31.2231
 21
3.63548
  0
LINE
  8
0
 10
31.2231
 20
3.63548
 11
31.6217
 21
4.47826
  0
LINE
  8
0
 10
31.6217
 20
4.47826
 11
32.101
 21
5.27791
  0
LINE
  8
0
 10
32.101
 20
5.27791
 11
32.6564
 21
6.02673
  0
LINE
  8
0
 10
32.6564
 20
6.02673
 11
33.2825
 21
6.71751
  0
LINE
  8
0
 10
33.2825
 20
6.71751
 11
33.9733
 21
7.3436
  0
LINE
  8
0
 10
33.9733
 20
7.3436
 11
34.7221
 21
7.89896
  0
LINE
  8
0
 10
34.7221
 20
7.89896
 11
35.5217
 21
8.37825
  0
LINE
  8
0
 10
35.5217
 20
8.37825
 11
36.3645
 21
8.77686
  0
LINE
  8
0
 10
36.3645
 20
8.77686
 11
37.2423
 21
9.09093
  0
LINE
  8
0
 10
37.2423
 20
9.09093
 11
38.1466
 21
9.31746
  0
LINE
  8
0
 10
38.1466
 20
9.31746
 11
39.0688
 21
9.45425
  0
LINE
  8
0
 10
39.0688
 20
9.45425
 11
40
 21
9.5
  0
LINE
  8
0
 10
40
 20
9.5
 11
40.9312
 21
9.45425
  0
LINE
  8
0
 10
40.9312
 20
9.45425
 11
41.8533
 21
9.31746
  0
LINE
  8
0
 10
41.8533
 20
9.31746
 11
42.7577
 21
9.09093
  0
LINE
  8
0
 10
42.7577
 20
9.09093
 11
43.6355
 21
8.77686
  0
LINE
  8
0
 10
43.6355
 20
8.77686
 11
44.4783
 21
8.37825
  0
LINE
  8
0
 10
44.4783
 20
8.37825
 11
45.2779
 21
7.89896
  0
LINE
  8
0
 10
45.2779
 20
7.89896
 11
46.0267
 21
7.3436
  0
LINE
  8
0
 10
46.0267
 20
7.3436
 11
46.7175
 21
6.71751
  0
LINE
  8
0
 10
46.7175
 20
6.71751
 11
47.3436
 21
6.02673
  0
LINE
  8
0
 10
47.3436
 20
6.02673
 11
47.899
 21
5.27791
  0
LINE
  8
0
 10
47.899
 20
5.27791
 11
48.3783
 21
4.47826
  0
LINE
  8
0
 10
48.3783
 20
4.47826
 11
48.7769
 21
3.63548
  0
LINE
  8
0
 10
48.7769
 20
3.63548
 11
49.0909
 21
2.75769
  0
LINE
  8
0
 10
49.0909
 20
2.75769
 11
49.3175
 21
1.85335
  0
LINE
  8
0
 10
49.3175
 20
1.85335
 11
49.4543
 21
0.931152
  0
LINE
  8
0
 10
49.4543
 20
0.931152
 11
49.5
 21
0
  0
LINE
  8
0
 10
49.5
 20
0
 11
49.4543
 21
-0.931152
  0
LINE
  8
0
 10
49.4543
 20
-0.931152
 11
49.3175
 21
-1.85335
  0
LINE
  8
0
 10
49.3175
 20
-1.85335
 11
49.0909
 21
-2.75769
  0
LINE
  8
0
 10
49.0909
 20
-2.75769
 11
48.7769
 21
-3.63548
  0
LINE
  8
0
 10
48.7769
 20
-3.63548
 11
48.3783
 21
-4.47826
  0
LINE
  8
0
 10
48.3783
 20
-4.47826
 11
47.899
 21
-5.27791
  0
LINE
  8
0
 10
47.899
 20
-5.27791
 11
47.3436
 21
-6.02673
  0
LINE
  8
0
 10
47.3436
 20
-6.02673
 11
46.7175
 21
-6.71751
  0
LINE
  8
0
 10
46.7175
 20
-6.71751
 11
46.0267
 21
-7.3436
  0
LINE
  8
0
 10
46.0267
 20
-7.3436
 11
45.2779
 21
-7.89896
  0
LINE
  8
0
 10
45.2779
 20
-7.89896
 11
44.4783
 21
-8.37825
  0
LINE
  8
0
 10
44.4783
 20
-8.37825
 11
43.6355
 21
-8.77686
  0
LINE
  8
0
 10
43.6355
 20
-8.77686
 11
42.7577
 21
-9.09093
  0
LINE
  8
0
 10
42.7577
 20
-9.09093
 11
41.8533
 21
-9.31746
  0
LINE
  8
0
 10
41.8533
 20
-9.31746
 11
40.9312
 21
-9.45425
  0
LINE
  8
0
 10
40.9312
 20
-9.45425
 11
40
 21
-9.5
  0
LINE
  8
0
 10
40
 20
-9.5
 11
39.0688
 21
-9.45425
  0
LINE
  8
0
 10
39.7059
 20
-42.9855
 11
39.4147
 21
-42.9424
  0
LINE
  8
0
 10
39.4147
 20
-42.9424
 11
39.1291
 21
-42.8708
  0
LINE
  8
0
 10
39.1291
 20
-42.8708
 11
38.8519
 21
-42.7716
  0
LINE
  8
0
 10
38.8519
 20
-42.7716
 11
38.5858
 21
-42.6458
  0
LINE
  8
0
 10
38.5858
 20
-42.6458
 11
38.3333
 21
-42.4944
  0
LINE
  8
0
 10
38.3333
 20
-42.4944
 11
38.0968
 21
-42.319
  0
LINE
  8
0
 10
38.0968
 20
-42.319
 11
37.8787
 21
-42.1213
  0
LINE
  8
0
 10
37.8787
 20
-42.1213
 11
37.681
 21
-41.9032
  0
LINE
  8
0
 10
37.681
 20
-41.9032
 11
37.5056
 21
-41.6667
  0
LINE
  8
0
 10
37.5056
 20
-41.6667
 11
37.3542
 21
-41.4142
  0
LINE
  8
0
 10
37.3542
 20
-41.4142
 11
37.2284
 21
-41.148
  0
LINE
  8
0
 10
37.2284
 20
-41.148
 11
37.1292
 21
-40.8708
  0
LINE
  8
0
 10
37.1292
 20
-40.8708
 11
37.0576
 21
-40.5853
  0
LINE
  8
0
 10
37.0576
 20
-40.5853
 11
37.0144
 21
-40.2941
  0
LINE
  8
0
 10
37.0144
 20
-40.2941
 11
37
 21
-40
  0
LINE
  8
0
 10
37
 20
-40
 11
37.0144
 21
-39.7059
  0
LINE
  8
0
 10
37.0144
 20
-39.7059
 11
37.0576
 21
-39.4147
  0
LINE
  8
0
 10
37.0576
 20
-39.4147
 11
37.1292
 21
-39.1291
  0
LINE
  8
0
 10
37.1292
 20
-39.1291
 11
37.2284
 21
-38.8519
  0
LINE
  8
0
 10
37.2284
 20
-38.8519
 11
37.3542
 21
-38.5858
  0
LINE
  8
0
 10
37.3542
 20
-38.5858
 11
37.5056
 21
-38.3333
  0
LINE
  8
0
 10
37.5056
 20
-38.3333
 11
37.681
 21
-38.0968
  0
LINE
  8
0
 10
37.681
 20
-38.0968
 11
37.8787
 21
-37.8787
  0
LINE
  8
0
 10
37.8787
 20
-37.8787
 11
38.0968
 21
-37.681
  0
LINE
  8
0
 10
38.0968
 20
-37.681
 11
38.3333
 21
-37.5056
  0
LINE
  8
0
 10
38.3333
 20
-37.5056
 11
38.5858
 21
-37.3542
  0
LINE
  8
0
 10
38.5858
 20
-37.3542
 11
38.8519
 21
-37.2284
  0
LINE
  8
0
 10
38.8519
 20
-37.2284
 11
39.1291
 21
-37.1292
  0
LINE
  8
0
 10
39.1291
 20
-37.1292
 11
39.4147
 21
-37.0576
  0
LINE
  8
0
 10
39.4147
 20
-37.0576
 11
39.7059
 21
-37.0144
  0
LINE
  8
0
 10
39.7059
 20
-37.0144
 11
40
 21
-37
  0
LINE
  8
0
 10
40
 20
-37
 11
40.2941
 21
-37.0144
  0
LINE
  8
0
 10
40.2941
 20
-37.0144
 11
40.5853
 21
-37.0576
  0
LINE
  8
0
 10
40.5853
 20
-37.0576
 11
40.8708
 21
-37.1292
  0
LINE
  8
0
 10
40.8708
 20
-37.1292
 11
41.148
 21
-37.2284
  0
LINE
  8
0
 10
41.148
 20
-37.2284
 11
41.4142
 21
-37.3542
  0
LINE
  8
0
 10
41.4142
 20
-37.3542
 11
41.6667
 21
-37.5056
  0
LINE
  8
0
 10
41.6667
 20
-37.5056
 11
41.9032
 21
-37.681
  0
LINE
  8
0
 10
41.9032
 20
-37.681
 11
42.1213
 21
-37.8787
  0
LINE
  8
0
 10
42.1213
 20
-37.8787
 11
42.319
 21
-38.0968
  0
LINE
  8
0
 10
42.319
 20
-38.0968
 11
42.4944
 21
-38.3333
  0
LINE
  8
0
 10
42.4944
 20
-38.3333
 11
42.6458
 21
-38.5858
  0
LINE
  8
0
 10
42.6458
 20
-38.5858
 11
42.7716
 21
-38.8519
  0
LINE
  8
0
 10
42.7716
 20
-38.8519
 11
42.8708
 21
-39.1291
  0
LINE
  8
0
 10
42.8708
 20
-39.1291
 11
42.9424
 21
-39.4147
  0
LINE
  8
0
 10
42.9424
 20
-39.4147
 11
42.9855
 21
-39.7059
  0
LINE
  8
0
 10
42.9855
 20
-39.7059
 11
43
 21
-40
  0
LINE
  8
0
 10
43
 20
-40
 11
42.9855
 21
-40.2941
  0
LINE
  8
0
 10
42.9855
 20
-40.2941
 11
42.9424
 21
-40.5853
  0
LINE
  8
0
 10
42.9424
 20
-40.5853
 11
42.8708
 21
-40.8708
  0
LINE
  8
0
 10
42.8708
 20
-40.8708
 11
42.7716
 21
-41.148
  0
LINE
  8
0
 10
42.7716
 20
-41.148
 11
42.6458
 21
-41.4142
  0
LINE
  8
0
 10
42.6458
 20
-41.4142
 11
42.4944
 21
-41.6667
  0
LINE
  8
0
 10
42.4944
 20
-41.6667
 11
42.319
 21
-41.9032
  0
LINE
  8
0
 10
42.319
 20
-41.9032
 11
42.1213
 21
-42.1213
  0
LINE
  8
0
 10
42.1213
 20
-42.1213
 11
41.9032
 21
-42.319
  0
LINE
  8
0
 10
41.9032
 20
-42.319
 11
41.6667
 21
-42.4944
  0
LINE
  8
0
 10
41.6667
 20
-42.4944
 11
41.4142
 21
-42.6458
  0
LINE
  8
0
 10
41.4142
 20
-42.6458
 11
41.148
 21
-42.7716
  0
LINE
  8
0
 10
41.148
 20
-42.7716
 11
40.8708
 21
-42.8708
  0
LINE
  8
0
 10
40.8708
 20
-42.8708
 11
40.5853
 21
-42.9424
  0
LINE
  8
0
 10
40.5853
 20
-42.9424
 11
40.2941
 21
-42.9855
  0
LINE
  8
0
 10
40.2941
 20
-42.9855
 11
40
 21
-43
  0
LINE
  8
0
 10
40
 20
-43
 11
39.7059
 21
-42.9855
  0
LINE
  8
0
 10
-40.2941
 20
-42.9855
 11
-40.5853
 21
-42.9424
  0
LINE
  8
0
 10
-40.5853
 20
-42.9424
 11
-40.8708
 21
-42.8708
  0
LINE
  8
0
 10
-40.8708
 20
-42.8708
 11
-41.148
 21
-42.7716
  0
LINE
  8
0
 10
-41.148
 20
-42.7716
 11
-41.4142
 21
-42.6458
  0
LINE
  8
0
 10
-41.4142
 20
-42.6458
 11
-41.6667
 21
-42.4944
  0
LINE
  8
0
 10
-41.6667
 20
-42.4944
 11
-41.9032
 21
-42.319
  0
LINE
  8
0
 10
-41.9032
 20
-42.319
 11
-42.1213
 21
-42.1213
  0
LINE
  8
0
 10
-42.1213
 20
-42.1213
 11
-42.319
 21
-41.9032
  0
LINE
  8
0
 10
-42.319
 20
-41.9032
 11
-42.4944
 21
-41.6667
  0
LINE
  8
0
 10
-42.4944
 20
-41.6667
 11
-42.6458
 21
-41.4142
  0
LINE
  8
0
 10
-42.6458
 20
-41.4142
 11
-42.7716
 21
-41.148
  0
LINE
  8
0
 10
-42.7716
 20
-41.148
 11
-42.8708
 21
-40.8708
  0
LINE
  8
0
 10
-42.8708
 20
-40.8708
 11
-42.9424
 21
-40.5853
  0
LINE
  8
0
 10
-42.9424
 20
-40.5853
 11
-42.9855
 21
-40.2941
  0
LINE
  8
0
 10
-42.9855
 20
-40.2941
 11
-43
 21
-40
  0
LINE
  8
0
 10
-43
 20
-40
 11
-42.9855
 21
-39.7059
  0
LINE
  8
0
 10
-42.9855
 20
-39.7059
 11
-42.9424
 21
-39.4147
  0
LINE
  8
0
 10
-42.9424
 20
-39.4147
 11
-42.8708
 21
-39.1291
  0
LINE
  8
0
 10
-42.8708
 20
-39.1291
 11
-42.7716
 21
-38.8519
  0
LINE
  8
0
 10
-42.7716
 20
-38.8519
 11
-42.6458
 21
-38.5858
  0
LINE
  8
0
 10
-42.6458
 20
-38.5858
 11
-42.4944
 21
-38.3333
  0
LINE
  8
0
 10
-42.4944
 20
-38.3333
 11
-42.319
 21
-38.0968
  0
LINE
  8
0
 10
-42.319
 20
-38.0968
 11
-42.1213
 21
-37.8787
  0
LINE
  8
0
 10
-42.1213
 20
-37.8787
 11
-41.9032
 21
-37.681
  0
LINE
  8
0
 10
-41.9032
 20
-37.681
 11
-41.6667
 21
-37.5056
  0
LINE
  8
0
 10
-41.6667
 20
-37.5056
 11
-41.4142
 21
-37.3542
  0
LINE
  8
0
 10
-41.4142
 20
-37.3542
 11
-41.148
 21
-37.2284
  0
LINE
  8
0
 10
-41.148
 20
-37.2284
 11
-40.8708
 21
-37.1292
  0
LINE
  8
0
 10
-40.8708
 20
-37.1292
 11
-40.5853
 21
-37.0576
  0
LINE
  8
0
 10
-40.5853
 20
-37.0576
 11
-40.2941
 21
-37.0144
  0
LINE
  8
0
 10
-40.2941
 20
-37.0144
 11
-40
 21
-37
  0
LINE
  8
0
 10
-40
 20
-37
 11
-39.7059
 21
-37.0144
  0
LINE
  8
0
 10
-39.7059
 20
-37.0144
 11
-39.4147
 21
-37.0576
  0
LINE
  8
0
 10
-39.4147
 20
-37.0576
 11
-39.1291
 21
-37.1292
  0
LINE
  8
0
 10
-39.1291
 20
-37.1292
 11
-38.8519
 21
-37.2284
  0
LINE
  8
0
 10
-38.8519
 20
-37.2284
 11
-38.5858
 21
-37.3542
  0
LINE
  8
0
 10
-38.5858
 20
-37.3542
 11
-38.3333
 21
-37.5056
  0
LINE
  8
0
 10
-38.3333
 20
-37.5056
 11
-38.0968
 21
-37.681
  0
LINE
  8
0
 10
-38.0968
 20
-37.681
 11
-37.8787
 21
-37.8787
  0
LINE
  8
0
 10
-37.8787
 20
-37.8787
 11
-37.681
 21
-38.0968
  0
LINE
  8
0
 10
-37.681
 20
-38.0968
 11
-37.5056
 21
-38.3333
  0
LINE
  8
0
 10
-37.5056
 20
-38.3333
 11
-37.3542
 21
-38.5858
  0
LINE
  8
0
 10
-37.3542
 20
-38.5858
 11
-37.2284
 21
-38.8519
  0
LINE
  8
0
 10
-37.2284
 20
-38.8519
 11
-37.1292
 21
-39.1291
  0
LINE
  8
0
 10
-37.1292
 20
-39.1291
 11
-37.0576
 21
-39.4147
  0
LINE
  8
0
 10
-37.0576
 20
-39.4147
 11
-37.0144
 21
-39.7059
  0
LINE
  8
0
 10
-37.0144
 20
-39.7059
 11
-37
 21
-40
  0
LINE
  8
0
 10
-37
 20
-40
 11
-37.0144
 21
-40.2941
  0
LINE
  8
0
 10
-37.0144
 20
-40.2941
 11
-37.0576
 21
-40.5853
  0
LINE
  8
0
 10
-37.0576
 20
-40.5853
 11
-37.1292
 21
-40.8708
  0
LINE
  8
0
 10
-37.1292
 20
-40.8708
 11
-37.2284
 21
-41.148
  0
LINE
  8
0
 10
-37.2284
 20
-41.148
 11
-37.3542
 21
-41.4142
  0
LINE
  8
0
 10
-37.3542
 20
-41.4142
 11
-37.5056
 21
-41.6667
  0
LINE
  8
0
 10
-37.5056
 20
-41.6667
 11
-37.681
 21
-41.9032
  0
LINE
  8
0
 10
-37.681
 20
-41.9032
 11
-37.8787
 21
-42.1213
  0
LINE
  8
0
 10
-37.8787
 20
-42.1213
 11
-38.0968
 21
-42.319
  0
LINE
  8
0
 10
-38.0968
 20
-42.319
 11
-38.3333
 21
-42.4944
  0
LINE
  8
0
 10
-38.3333
 20
-42.4944
 11
-38.5858
 21
-42.6458
  0
LINE
  8
0
 10
-38.5858
 20
-42.6458
 11
-38.8519
 21
-42.7716
  0
LINE
  8
0
 10
-38.8519
 20
-42.7716
 11
-39.1291
 21
-42.8708
  0
LINE
  8
0
 10
-39.1291
 20
-42.8708
 11
-39.4147
 21
-42.9424
  0
LINE
  8
0
 10
-39.4147
 20
-42.9424
 11
-39.7059
 21
-42.9855
  0
LINE
  8
0
 10
-39.7059
 20
-42.9855
 11
-40
 21
-43
  0
LINE
  8
0
 10
-40
 20
-43
 11
-40.2941
 21
-42.9855
  0
ENDSEC
  0
SECTION
  2
OBJECTS
  0
DICTIONARY
  0
ENDSEC
  0
EOF
