  0
SECTION
  2
BLOCKS
  0
ENDSEC
  0
SECTION
  2
ENTITIES
  0
LINE
  8
0
 10
0
 20
-49.9013
 11
0.751938
 21
-49.9013
  0
LINE
  8
0
 10
0.751938
 20
-49.9013
 11
9.38606
 21
-59.2613
  0
LINE
  8
0
 10
9.38606
 20
-59.2613
 11
7.81013
 21
-49.3113
  0
LINE
  8
0
 10
7.81013
 20
-49.3113
 11
8.60202
 21
-49.2112
  0
LINE
  8
0
 10
8.60202
 20
-49.2112
 11
18.541
 21
-57.0634
  0
LINE
  8
0
 10
18.541
 20
-57.0634
 11
15.4508
 21
-47.5528
  0
LINE
  8
0
 10
15.4508
 20
-47.5528
 11
16.1931
 21
-47.2589
  0
LINE
  8
0
 10
16.1931
 20
-47.2589
 11
27.2394
 21
-53.4604
  0
LINE
  8
0
 10
27.2394
 20
-53.4604
 11
22.6659
 21
-44.4844
  0
LINE
  8
0
 10
22.6659
 20
-44.4844
 11
23.326
 21
-44.1215
  0
LINE
  8
0
 10
23.326
 20
-44.1215
 11
35.2671
 21
-48.541
  0
LINE
  8
0
 10
35.2671
 20
-48.541
 11
29.3313
 21
-40.371
  0
LINE
  8
0
 10
29.3313
 20
-40.371
 11
29.9396
 21
-39.929
  0
LINE
  8
0
 10
29.9396
 20
-39.929
 11
42.4264
 21
-42.4264
  0
LINE
  8
0
 10
42.4264
 20
-42.4264
 11
35.303
 21
-35.303
  0
LINE
  8
0
 10
35.303
 20
-35.303
 11
35.8848
 21
-34.7566
  0
LINE
  8
0
 10
35.8848
 20
-34.7566
 11
48.541
 21
-35.2671
  0
LINE
  8
0
 10
48.541
 20
-35.2671
 11
40.4508
 21
-29.3893
  0
LINE
  8
0
 10
40.4508
 20
-29.3893
 11
40.8786
 21
-28.7152
  0
LINE
  8
0
 10
40.8786
 20
-28.7152
 11
53.4604
 21
-27.2394
  0
LINE
  8
0
 10
53.4604
 20
-27.2394
 11
44.4844
 21
-22.6659
  0
LINE
  8
0
 10
44.4844
 20
-22.6659
 11
44.8051
 21
-21.9844
  0
LINE
  8
0
 10
44.8051
 20
-21.9844
 11
57.0634
 21
-18.541
  0
LINE
  8
0
 10
57.0634
 20
-18.541
 11
47.459
 21
-15.4204
  0
LINE
  8
0
 10
47.459
 20
-15.4204
 11
47.6913
 21
-14.7052
  0
LINE
  8
0
 10
47.6913
 20
-14.7052
 11
59.2613
 21
-9.38606
  0
LINE
  8
0
 10
59.2613
 20
-9.38606
 11
49.3113
 21
-7.81015
  0
LINE
  8
0
 10
49.3113
 20
-7.81015
 11
49.4609
 21
-7.02609
  0
LINE
  8
0
 10
49.4609
 20
-7.02609
 11
60
 21
0
  0
LINE
  8
0
 10
60
 20
0
 11
50
 21
0
  0
LINE
  8
0
 10
50
 20
0
 11
49.9499
 21
0.796722
  0
LINE
  8
0
 10
49.9499
 20
0.796722
 11
59.2613
 21
9.38606
  0
LINE
  8
0
 10
59.2613
 20
9.38606
 11
49.3113
 21
7.81013
  0
LINE
  8
0
 10
49.3113
 20
7.81013
 11
49.1702
 21
8.55
  0
LINE
  8
0
 10
49.1702
 20
8.55
 11
57.0634
 21
18.541
  0
LINE
  8
0
 10
57.0634
 20
18.541
 11
47.459
 21
15.4203
  0
LINE
  8
0
 10
47.459
 20
15.4203
 11
47.2266
 21
16.1355
  0
LINE
  8
0
 10
47.2266
 20
16.1355
 11
53.4604
 21
27.2394
  0
LINE
  8
0
 10
53.4604
 20
27.2394
 11
44.4844
 21
22.6659
  0
LINE
  8
0
 10
44.4844
 20
22.6659
 11
44.1445
 21
23.3881
  0
LINE
  8
0
 10
44.1445
 20
23.3881
 11
48.541
 21
35.2671
  0
LINE
  8
0
 10
48.541
 20
35.2671
 11
40.4508
 21
29.3893
  0
LINE
  8
0
 10
40.4508
 20
29.3893
 11
39.942
 21
30.0043
  0
LINE
  8
0
 10
39.942
 20
30.0043
 11
42.4264
 21
42.4264
  0
LINE
  8
0
 10
42.4264
 20
42.4264
 11
35.303
 21
35.303
  0
LINE
  8
0
 10
35.303
 20
35.303
 11
34.7539
 21
35.8186
  0
LINE
  8
0
 10
34.7539
 20
35.8186
 11
35.2671
 21
48.541
  0
LINE
  8
0
 10
35.2671
 20
48.541
 11
29.3313
 21
40.371
  0
LINE
  8
0
 10
29.3313
 20
40.371
 11
28.7229
 21
40.813
  0
LINE
  8
0
 10
28.7229
 20
40.813
 11
27.2394
 21
53.4604
  0
LINE
  8
0
 10
27.2394
 20
53.4604
 11
22.6659
 21
44.4844
  0
LINE
  8
0
 10
22.6659
 20
44.4844
 11
21.9664
 21
44.8689
  0
LINE
  8
0
 10
21.9664
 20
44.8689
 11
18.541
 21
57.0634
  0
LINE
  8
0
 10
18.541
 20
57.0634
 11
15.4508
 21
47.5528
  0
LINE
  8
0
 10
15.4508
 20
47.5528
 11
14.6776
 21
47.7513
  0
LINE
  8
0
 10
14.6776
 20
47.7513
 11
9.38606
 21
59.2613
  0
LINE
  8
0
 10
9.38606
 20
59.2613
 11
7.81013
 21
49.3113
  0
LINE
  8
0
 10
7.81013
 20
49.3113
 11
7.06288
 21
49.4057
  0
LINE
  8
0
 10
7.06288
 20
49.4057
 11
0
 21
60
  0
LINE
  8
0
 10
0
 20
60
 11
0
 21
49.9013
  0
LINE
  8
0
 10
0
 20
49.9013
 11
-0.751938
 21
49.9013
  0
LINE
  8
0
 10
-0.751938
 20
49.9013
 11
-9.38606
 21
59.2613
  0
LINE
  8
0
 10
-9.38606
 20
59.2613
 11
-7.81013
 21
49.3113
  0
LINE
  8
0
 10
-7.81013
 20
49.3113
 11
-8.60202
 21
49.2112
  0
LINE
  8
0
 10
-8.60202
 20
49.2112
 11
-18.541
 21
57.0634
  0
LINE
  8
0
 10
-18.541
 20
57.0634
 11
-15.4508
 21
47.5528
  0
LINE
  8
0
 10
-15.4508
 20
47.5528
 11
-16.1931
 21
47.2589
  0
LINE
  8
0
 10
-16.1931
 20
47.2589
 11
-27.2394
 21
53.4604
  0
LINE
  8
0
 10
-27.2394
 20
53.4604
 11
-22.6659
 21
44.4844
  0
LINE
  8
0
 10
-22.6659
 20
44.4844
 11
-23.326
 21
44.1215
  0
LINE
  8
0
 10
-23.326
 20
44.1215
 11
-35.2671
 21
48.541
  0
LINE
  8
0
 10
-35.2671
 20
48.541
 11
-29.3313
 21
40.371
  0
LINE
  8
0
 10
-29.3313
 20
40.371
 11
-29.9396
 21
39.929
  0
LINE
  8
0
 10
-29.9396
 20
39.929
 11
-42.4264
 21
42.4264
  0
LINE
  8
0
 10
-42.4264
 20
42.4264
 11
-35.303
 21
35.303
  0
LINE
  8
0
 10
-35.303
 20
35.303
 11
-35.8848
 21
34.7566
  0
LINE
  8
0
 10
-35.8848
 20
34.7566
 11
-48.541
 21
35.2671
  0
LINE
  8
0
 10
-48.541
 20
35.2671
 11
-40.4508
 21
29.3893
  0
LINE
  8
0
 10
-40.4508
 20
29.3893
 11
-40.8786
 21
28.7152
  0
LINE
  8
0
 10
-40.8786
 20
28.7152
 11
-53.4604
 21
27.2394
  0
LINE
  8
0
 10
-53.4604
 20
27.2394
 11
-44.4844
 21
22.6659
  0
LINE
  8
0
 10
-44.4844
 20
22.6659
 11
-44.8051
 21
21.9844
  0
LINE
  8
0
 10
-44.8051
 20
21.9844
 11
-57.0634
 21
18.541
  0
LINE
  8
0
 10
-57.0634
 20
18.541
 11
-47.459
 21
15.4204
  0
LINE
  8
0
 10
-47.459
 20
15.4204
 11
-47.6913
 21
14.7052
  0
LINE
  8
0
 10
-47.6913
 20
14.7052
 11
-59.2613
 21
9.38606
  0
LINE
  8
0
 10
-59.2613
 20
9.38606
 11
-49.3113
 21
7.81015
  0
LINE
  8
0
 10
-49.3113
 20
7.81015
 11
-49.4609
 21
7.02609
  0
LINE
  8
0
 10
-49.4609
 20
7.02609
 11
-60
 21
0
  0
LINE
  8
0
 10
-60
 20
0
 11
-50
 21
0
  0
LINE
  8
0
 10
-50
 20
0
 11
-49.9499
 21
-0.796722
  0
LINE
  8
0
 10
-49.9499
 20
-0.796722
 11
-59.2613
 21
-9.38606
  0
LINE
  8
0
 10
-59.2613
 20
-9.38606
 11
-49.3113
 21
-7.81013
  0
LINE
  8
0
 10
-49.3113
 20
-7.81013
 11
-49.1702
 21
-8.55
  0
LINE
  8
0
 10
-49.1702
 20
-8.55
 11
-57.0634
 21
-18.541
  0
LINE
  8
0
 10
-57.0634
 20
-18.541
 11
-47.459
 21
-15.4203
  0
LINE
  8
0
 10
-47.459
 20
-15.4203
 11
-47.2266
 21
-16.1355
  0
LINE
  8
0
 10
-47.2266
 20
-16.1355
 11
-53.4604
 21
-27.2394
  0
LINE
  8
0
 10
-53.4604
 20
-27.2394
 11
-44.4844
 21
-22.6659
  0
LINE
  8
0
 10
-44.4844
 20
-22.6659
 11
-44.1445
 21
-23.3881
  0
LINE
  8
0
 10
-44.1445
 20
-23.3881
 11
-48.541
 21
-35.2671
  0
LINE
  8
0
 10
-48.541
 20
-35.2671
 11
-40.4508
 21
-29.3893
  0
LINE
  8
0
 10
-40.4508
 20
-29.3893
 11
-39.942
 21
-30.0043
  0
LINE
  8
0
 10
-39.942
 20
-30.0043
 11
-42.4264
 21
-42.4264
  0
LINE
  8
0
 10
-42.4264
 20
-42.4264
 11
-35.303
 21
-35.303
  0
LINE
  8
0
 10
-35.303
 20
-35.303
 11
-34.7539
 21
-35.8186
  0
LINE
  8
0
 10
-34.7539
 20
-35.8186
 11
-35.2671
 21
-48.541
  0
LINE
  8
0
 10
-35.2671
 20
-48.541
 11
-29.3313
 21
-40.371
  0
LINE
  8
0
 10
-29.3313
 20
-40.371
 11
-28.7229
 21
-40.813
  0
LINE
  8
0
 10
-28.7229
 20
-40.813
 11
-27.2394
 21
-53.4604
  0
LINE
  8
0
 10
-27.2394
 20
-53.4604
 11
-22.6659
 21
-44.4844
  0
LINE
  8
0
 10
-22.6659
 20
-44.4844
 11
-21.9664
 21
-44.8689
  0
LINE
  8
0
 10
-21.9664
 20
-44.8689
 11
-18.541
 21
-57.0634
  0
LINE
  8
0
 10
-18.541
 20
-57.0634
 11
-15.4508
 21
-47.5528
  0
LINE
  8
0
 10
-15.4508
 20
-47.5528
 11
-14.6776
 21
-47.7513
  0
LINE
  8
0
 10
-14.6776
 20
-47.7513
 11
-9.38606
 21
-59.2613
  0
LINE
  8
0
 10
-9.38606
 20
-59.2613
 11
-7.81013
 21
-49.3113
  0
LINE
  8
0
 10
-7.81013
 20
-49.3113
 11
-7.06288
 21
-49.4057
  0
LINE
  8
0
 10
-7.06288
 20
-49.4057
 11
0
 21
-60
  0
LINE
  8
0
 10
0
 20
-60
 11
0
 21
-49.9013
  0
LINE
  8
0
 10
-0.0627899
 20
-0.998016
 11
-0.187378
 21
-0.982285
  0
LINE
  8
0
 10
-0.187378
 20
-0.982285
 11
-0.309006
 21
-0.95105
  0
LINE
  8
0
 10
-0.309006
 20
-0.95105
 11
-0.425766
 21
-0.904816
  0
LINE
  8
0
 10
-0.425766
 20
-0.904816
 11
-0.535812
 21
-0.844315
  0
LINE
  8
0
 10
-0.535812
 20
-0.844315
 11
-0.637421
 21
-0.770508
  0
LINE
  8
0
 10
-0.637421
 20
-0.770508
 11
-0.728958
 21
-0.68454
  0
LINE
  8
0
 10
-0.728958
 20
-0.68454
 11
-0.809006
 21
-0.587784
  0
LINE
  8
0
 10
-0.809006
 20
-0.587784
 11
-0.876297
 21
-0.48175
  0
LINE
  8
0
 10
-0.876297
 20
-0.48175
 11
-0.929764
 21
-0.368118
  0
LINE
  8
0
 10
-0.929764
 20
-0.368118
 11
-0.968582
 21
-0.248688
  0
LINE
  8
0
 10
-0.968582
 20
-0.248688
 11
-0.992111
 21
-0.12532
  0
LINE
  8
0
 10
-0.992111
 20
-0.12532
 11
-1
 21
0
  0
LINE
  8
0
 10
-1
 20
0
 11
-0.992111
 21
0.12532
  0
LINE
  8
0
 10
-0.992111
 20
0.12532
 11
-0.968582
 21
0.248688
  0
LINE
  8
0
 10
-0.968582
 20
0.248688
 11
-0.929764
 21
0.368118
  0
LINE
  8
0
 10
-0.929764
 20
0.368118
 11
-0.876297
 21
0.48175
  0
LINE
  8
0
 10
-0.876297
 20
0.48175
 11
-0.809006
 21
0.587784
  0
LINE
  8
0
 10
-0.809006
 20
0.587784
 11
-0.728958
 21
0.68454
  0
LINE
  8
0
 10
-0.728958
 20
0.68454
 11
-0.637421
 21
0.770508
  0
LINE
  8
0
 10
-0.637421
 20
0.770508
 11
-0.535812
 21
0.844315
  0
LINE
  8
0
 10
-0.535812
 20
0.844315
 11
-0.425766
 21
0.904816
  0
LINE
  8
0
 10
-0.425766
 20
0.904816
 11
-0.309006
 21
0.95105
  0
LINE
  8
0
 10
-0.309006
 20
0.95105
 11
-0.187378
 21
0.982285
  0
LINE
  8
0
 10
-0.187378
 20
0.982285
 11
-0.0627899
 21
0.998016
  0
LINE
  8
0
 10
-0.0627899
 20
0.998016
 11
0.0627899
 21
0.998016
  0
LINE
  8
0
 10
0.0627899
 20
0.998016
 11
0.187378
 21
0.982285
  0
LINE
  8
0
 10
0.187378
 20
0.982285
 11
0.309006
 21
0.95105
  0
LINE
  8
0
 10
0.309006
 20
0.95105
 11
0.425766
 21
0.904816
  0
LINE
  8
0
 10
0.425766
 20
0.904816
 11
0.535812
 21
0.844315
  0
LINE
  8
0
 10
0.535812
 20
0.844315
 11
0.637421
 21
0.770508
  0
LINE
  8
0
 10
0.637421
 20
0.770508
 11
0.728958
 21
0.68454
  0
LINE
  8
0
 10
0.728958
 20
0.68454
 11
0.809006
 21
0.587784
  0
LINE
  8
0
 10
0.809006
 20
0.587784
 11
0.876297
 21
0.48175
  0
LINE
  8
0
 10
0.876297
 20
0.48175
 11
0.929764
 21
0.368118
  0
LINE
  8
0
 10
0.929764
 20
0.368118
 11
0.968582
 21
0.248688
  0
LINE
  8
0
 10
0.968582
 20
0.248688
 11
0.992111
 21
0.12532
  0
LINE
  8
0
 10
0.992111
 20
0.12532
 11
1
 21
0
  0
LINE
  8
0
 10
1
 20
0
 11
0.992111
 21
-0.12532
  0
LINE
  8
0
 10
0.992111
 20
-0.12532
 11
0.968582
 21
-0.248688
  0
LINE
  8
0
 10
0.968582
 20
-0.248688
 11
0.929764
 21
-0.368118
  0
LINE
  8
0
 10
0.929764
 20
-0.368118
 11
0.876297
 21
-0.48175
  0
LINE
  8
0
 10
0.876297
 20
-0.48175
 11
0.809006
 21
-0.587784
  0
LINE
  8
0
 10
0.809006
 20
-0.587784
 11
0.728958
 21
-0.68454
  0
LINE
  8
0
 10
0.728958
 20
-0.68454
 11
0.637421
 21
-0.770508
  0
LINE
  8
0
 10
0.637421
 20
-0.770508
 11
0.535812
 21
-0.844315
  0
LINE
  8
0
 10
0.535812
 20
-0.844315
 11
0.425766
 21
-0.904816
  0
LINE
  8
0
 10
0.425766
 20
-0.904816
 11
0.309006
 21
-0.95105
  0
LINE
  8
0
 10
0.309006
 20
-0.95105
 11
0.187378
 21
-0.982285
  0
LINE
  8
0
 10
0.187378
 20
-0.982285
 11
0.0627899
 21
-0.998016
  0
LINE
  8
0
 10
0.0627899
 20
-0.998016
 11
-0.0627899
 21
-0.998016
  0
ENDSEC
  0
SECTION
  2
OBJECTS
  0
DICTIONARY
  0
ENDSEC
  0
EOF
