  0
SECTION
  2
BLOCKS
  0
ENDSEC
  0
SECTION
  2
ENTITIES
  0
LINE
  8
0
 10
7.52866
 20
30.3551
 11
17.4514
 21
31.9267
  0
LINE
  8
0
 10
17.4514
 20
31.9267
 11
27.099
 21
34.7296
  0
LINE
  8
0
 10
27.099
 20
34.7296
 11
36.3192
 21
38.7195
  0
LINE
  8
0
 10
36.3192
 20
38.7195
 11
44.9667
 21
43.8336
  0
LINE
  8
0
 10
44.9667
 20
43.8336
 11
52.9049
 21
49.9911
  0
LINE
  8
0
 10
52.9049
 20
49.9911
 11
60.0089
 21
57.0951
  0
LINE
  8
0
 10
60.0089
 20
57.0951
 11
66.1664
 21
65.0333
  0
LINE
  8
0
 10
66.1664
 20
65.0333
 11
69.1491
 21
70.0768
  0
LINE
  8
0
 10
69.1491
 20
70.0768
 11
0
 21
110
  0
LINE
  8
0
 10
0
 20
110
 11
-69.2402
 21
70.0242
  0
LINE
  8
0
 10
-69.2402
 20
70.0242
 11
-68.8593
 21
69.2767
  0
LINE
  8
0
 10
-68.8593
 20
69.2767
 11
-63.2124
 21
60.9675
  0
LINE
  8
0
 10
-63.2124
 20
60.9675
 11
-56.5685
 21
53.4315
  0
LINE
  8
0
 10
-56.5685
 20
53.4315
 11
-49.0325
 21
46.7876
  0
LINE
  8
0
 10
-49.0325
 20
46.7876
 11
-40.7233
 21
41.1407
  0
LINE
  8
0
 10
-40.7233
 20
41.1407
 11
-31.7718
 21
36.5797
  0
LINE
  8
0
 10
-31.7718
 20
36.5797
 11
-22.3193
 21
33.1765
  0
LINE
  8
0
 10
-22.3193
 20
33.1765
 11
-12.5148
 21
30.9849
  0
LINE
  8
0
 10
-12.5148
 20
30.9849
 11
-2.51286
 21
30.0395
  0
LINE
  8
0
 10
-2.51286
 20
30.0395
 11
7.52866
 21
30.3551
  0
LINE
  8
0
 10
-0.0627899
 20
99.002
 11
-0.187378
 21
99.0177
  0
LINE
  8
0
 10
-0.187378
 20
99.0177
 11
-0.309006
 21
99.049
  0
LINE
  8
0
 10
-0.309006
 20
99.049
 11
-0.425766
 21
99.0952
  0
LINE
  8
0
 10
-0.425766
 20
99.0952
 11
-0.535812
 21
99.1557
  0
LINE
  8
0
 10
-0.535812
 20
99.1557
 11
-0.637421
 21
99.2295
  0
LINE
  8
0
 10
-0.637421
 20
99.2295
 11
-0.728958
 21
99.3155
  0
LINE
  8
0
 10
-0.728958
 20
99.3155
 11
-0.809006
 21
99.4122
  0
LINE
  8
0
 10
-0.809006
 20
99.4122
 11
-0.876297
 21
99.5182
  0
LINE
  8
0
 10
-0.876297
 20
99.5182
 11
-0.929764
 21
99.6319
  0
LINE
  8
0
 10
-0.929764
 20
99.6319
 11
-0.968582
 21
99.7513
  0
LINE
  8
0
 10
-0.968582
 20
99.7513
 11
-0.992111
 21
99.8747
  0
LINE
  8
0
 10
-0.992111
 20
99.8747
 11
-1
 21
100
  0
LINE
  8
0
 10
-1
 20
100
 11
-0.992111
 21
100.125
  0
LINE
  8
0
 10
-0.992111
 20
100.125
 11
-0.968582
 21
100.249
  0
LINE
  8
0
 10
-0.968582
 20
100.249
 11
-0.929764
 21
100.368
  0
LINE
  8
0
 10
-0.929764
 20
100.368
 11
-0.876297
 21
100.482
  0
LINE
  8
0
 10
-0.876297
 20
100.482
 11
-0.809006
 21
100.588
  0
LINE
  8
0
 10
-0.809006
 20
100.588
 11
-0.728958
 21
100.685
  0
LINE
  8
0
 10
-0.728958
 20
100.685
 11
-0.637421
 21
100.771
  0
LINE
  8
0
 10
-0.637421
 20
100.771
 11
-0.535812
 21
100.844
  0
LINE
  8
0
 10
-0.535812
 20
100.844
 11
-0.425766
 21
100.905
  0
LINE
  8
0
 10
-0.425766
 20
100.905
 11
-0.309006
 21
100.951
  0
LINE
  8
0
 10
-0.309006
 20
100.951
 11
-0.187378
 21
100.982
  0
LINE
  8
0
 10
-0.187378
 20
100.982
 11
-0.0627899
 21
100.998
  0
LINE
  8
0
 10
-0.0627899
 20
100.998
 11
0.0627899
 21
100.998
  0
LINE
  8
0
 10
0.0627899
 20
100.998
 11
0.187378
 21
100.982
  0
LINE
  8
0
 10
0.187378
 20
100.982
 11
0.309006
 21
100.951
  0
LINE
  8
0
 10
0.309006
 20
100.951
 11
0.425766
 21
100.905
  0
LINE
  8
0
 10
0.425766
 20
100.905
 11
0.535812
 21
100.844
  0
LINE
  8
0
 10
0.535812
 20
100.844
 11
0.637421
 21
100.771
  0
LINE
  8
0
 10
0.637421
 20
100.771
 11
0.728958
 21
100.685
  0
LINE
  8
0
 10
0.728958
 20
100.685
 11
0.809006
 21
100.588
  0
LINE
  8
0
 10
0.809006
 20
100.588
 11
0.876297
 21
100.482
  0
LINE
  8
0
 10
0.876297
 20
100.482
 11
0.929764
 21
100.368
  0
LINE
  8
0
 10
0.929764
 20
100.368
 11
0.968582
 21
100.249
  0
LINE
  8
0
 10
0.968582
 20
100.249
 11
0.992111
 21
100.125
  0
LINE
  8
0
 10
0.992111
 20
100.125
 11
1
 21
100
  0
LINE
  8
0
 10
1
 20
100
 11
0.992111
 21
99.8747
  0
LINE
  8
0
 10
0.992111
 20
99.8747
 11
0.968582
 21
99.7513
  0
LINE
  8
0
 10
0.968582
 20
99.7513
 11
0.929764
 21
99.6319
  0
LINE
  8
0
 10
0.929764
 20
99.6319
 11
0.876297
 21
99.5182
  0
LINE
  8
0
 10
0.876297
 20
99.5182
 11
0.809006
 21
99.4122
  0
LINE
  8
0
 10
0.809006
 20
99.4122
 11
0.728958
 21
99.3155
  0
LINE
  8
0
 10
0.728958
 20
99.3155
 11
0.637421
 21
99.2295
  0
LINE
  8
0
 10
0.637421
 20
99.2295
 11
0.535812
 21
99.1557
  0
LINE
  8
0
 10
0.535812
 20
99.1557
 11
0.425766
 21
99.0952
  0
LINE
  8
0
 10
0.425766
 20
99.0952
 11
0.309006
 21
99.049
  0
LINE
  8
0
 10
0.309006
 20
99.049
 11
0.187378
 21
99.0177
  0
LINE
  8
0
 10
0.187378
 20
99.0177
 11
0.0627899
 21
99.002
  0
LINE
  8
0
 10
0.0627899
 20
99.002
 11
-0.0627899
 21
99.002
  0
LINE
  8
0
 10
-10.1682
 20
45.8003
 11
-18.1344
 21
47.5809
  0
LINE
  8
0
 10
-18.1344
 20
47.5809
 11
-25.8146
 21
50.346
  0
LINE
  8
0
 10
-25.8146
 20
50.346
 11
-33.0877
 21
54.0518
  0
LINE
  8
0
 10
-33.0877
 20
54.0518
 11
-39.8389
 21
58.64
  0
LINE
  8
0
 10
-39.8389
 20
58.64
 11
-44.7368
 21
62.958
  0
LINE
  8
0
 10
-44.7368
 20
62.958
 11
0
 21
88.7868
  0
LINE
  8
0
 10
0
 20
88.7868
 11
44.7138
 21
62.9713
  0
LINE
  8
0
 10
44.7138
 20
62.9713
 11
42.9853
 21
61.2428
  0
LINE
  8
0
 10
42.9853
 20
61.2428
 11
36.5354
 21
56.2398
  0
LINE
  8
0
 10
36.5354
 20
56.2398
 11
29.5094
 21
52.0846
  0
LINE
  8
0
 10
29.5094
 20
52.0846
 11
22.018
 21
48.8428
  0
LINE
  8
0
 10
22.018
 20
48.8428
 11
14.1793
 21
46.5654
  0
LINE
  8
0
 10
14.1793
 20
46.5654
 11
6.11703
 21
45.2885
  0
LINE
  8
0
 10
6.11703
 20
45.2885
 11
-2.04169
 21
45.0321
  0
LINE
  8
0
 10
-2.04169
 20
45.0321
 11
-10.1682
 21
45.8003
  0
ENDSEC
  0
SECTION
  2
OBJECTS
  0
DICTIONARY
  0
ENDSEC
  0
EOF
