  0
SECTION
  2
BLOCKS
  0
ENDSEC
  0
SECTION
  2
ENTITIES
  0
LINE
  8
0
 10
6.65729
 20
-49.4569
 11
9.17389
 21
-49.139
  0
LINE
  8
0
 10
9.17389
 20
-49.139
 11
8.62352
 21
-64.6191
  0
LINE
  8
0
 10
8.62352
 20
-64.6191
 11
16.7782
 21
-47.0273
  0
LINE
  8
0
 10
16.7782
 20
-47.0273
 11
19.176
 21
-46.0779
  0
LINE
  8
0
 10
19.176
 20
-46.0779
 11
21.8701
 21
-61.4141
  0
LINE
  8
0
 10
21.8701
 20
-61.4141
 11
26.1796
 21
-42.5527
  0
LINE
  8
0
 10
26.1796
 20
-42.5527
 11
26.7913
 21
-42.2164
  0
LINE
  8
0
 10
26.7913
 20
-42.2164
 11
28.3399
 21
-41.0912
  0
LINE
  8
0
 10
28.3399
 20
-41.0912
 11
34.1609
 21
-55.525
  0
LINE
  8
0
 10
34.1609
 20
-55.525
 11
34.4559
 21
-36.0984
  0
LINE
  8
0
 10
34.4559
 20
-36.0984
 11
36.305
 21
-34.362
  0
LINE
  8
0
 10
36.305
 20
-34.362
 11
44.9588
 21
-47.2092
  0
LINE
  8
0
 10
44.9588
 20
-47.2092
 11
41.2158
 21
-28.1839
  0
LINE
  8
0
 10
41.2158
 20
-28.1839
 11
42.5976
 21
-26.0065
  0
LINE
  8
0
 10
42.5976
 20
-26.0065
 11
53.7916
 21
-36.8301
  0
LINE
  8
0
 10
53.7916
 20
-36.8301
 11
46.1916
 21
-19.0379
  0
LINE
  8
0
 10
46.1916
 20
-19.0379
 11
46.4888
 21
-18.4062
  0
LINE
  8
0
 10
46.4888
 20
-18.4062
 11
47.0803
 21
-16.5857
  0
LINE
  8
0
 10
47.0803
 20
-16.5857
 11
60.2736
 21
-24.8414
  0
LINE
  8
0
 10
60.2736
 20
-24.8414
 11
49.0936
 21
-8.95155
  0
LINE
  8
0
 10
49.0936
 20
-8.95155
 11
49.5689
 21
-6.45987
  0
LINE
  8
0
 10
49.5689
 20
-6.45987
 11
64.1213
 21
-11.767
  0
LINE
  8
0
 10
64.1213
 20
-11.767
 11
49.9104
 21
1.42473
  0
LINE
  8
0
 10
49.9104
 20
1.42473
 11
49.7484
 21
3.99855
  0
LINE
  8
0
 10
49.7484
 20
3.99855
 11
65.1666
 21
1.82173
  0
LINE
  8
0
 10
65.1666
 20
1.82173
 11
48.56
 21
11.7487
  0
LINE
  8
0
 10
48.56
 20
11.7487
 11
48.4292
 21
12.4345
  0
LINE
  8
0
 10
48.4292
 20
12.4345
 11
47.8376
 21
14.255
  0
LINE
  8
0
 10
47.8376
 20
14.255
 11
63.3638
 21
15.3308
  0
LINE
  8
0
 10
63.3638
 20
15.3308
 11
44.9791
 21
21.6145
  0
LINE
  8
0
 10
44.9791
 20
21.6145
 11
43.8991
 21
23.9097
  0
LINE
  8
0
 10
43.8991
 20
23.9097
 11
58.7916
 21
28.1699
  0
LINE
  8
0
 10
58.7916
 20
28.1699
 11
39.5409
 21
30.4892
  0
LINE
  8
0
 10
39.5409
 20
30.4892
 11
37.897
 21
32.4763
  0
LINE
  8
0
 10
37.897
 20
32.4763
 11
51.6501
 21
39.7778
  0
LINE
  8
0
 10
51.6501
 20
39.7778
 11
32.3801
 21
38.0477
  0
LINE
  8
0
 10
32.3801
 20
38.0477
 11
31.8712
 21
38.5257
  0
LINE
  8
0
 10
31.8712
 20
38.5257
 11
30.3226
 21
39.6508
  0
LINE
  8
0
 10
30.3226
 20
39.6508
 11
42.2511
 21
49.6472
  0
LINE
  8
0
 10
42.2511
 20
49.6472
 11
23.6842
 21
43.9246
  0
LINE
  8
0
 10
23.6842
 20
43.9246
 11
21.4613
 21
45.1466
  0
LINE
  8
0
 10
21.4613
 20
45.1466
 11
31.0056
 21
57.3468
  0
LINE
  8
0
 10
31.0056
 20
57.3468
 11
14.0681
 21
47.9078
  0
LINE
  8
0
 10
14.0681
 20
47.9078
 11
11.5703
 21
48.5492
  0
LINE
  8
0
 10
11.5703
 20
48.5492
 11
18.405
 21
62.54
  0
LINE
  8
0
 10
18.405
 20
62.54
 11
3.83214
 21
49.8138
  0
LINE
  8
0
 10
3.83214
 20
49.8138
 11
3.13951
 21
49.9013
  0
LINE
  8
0
 10
3.13951
 20
49.9013
 11
1.22533
 21
49.9013
  0
LINE
  8
0
 10
1.22533
 20
49.9013
 11
5
 21
65
  0
LINE
  8
0
 10
5
 20
65
 11
-6.65729
 21
49.4569
  0
LINE
  8
0
 10
-6.65729
 20
49.4569
 11
-9.17389
 21
49.139
  0
LINE
  8
0
 10
-9.17389
 20
49.139
 11
-8.62352
 21
64.6191
  0
LINE
  8
0
 10
-8.62352
 20
64.6191
 11
-16.7782
 21
47.0273
  0
LINE
  8
0
 10
-16.7782
 20
47.0273
 11
-19.176
 21
46.0779
  0
LINE
  8
0
 10
-19.176
 20
46.0779
 11
-21.8701
 21
61.4141
  0
LINE
  8
0
 10
-21.8701
 20
61.4141
 11
-26.1796
 21
42.5527
  0
LINE
  8
0
 10
-26.1796
 20
42.5527
 11
-26.7913
 21
42.2164
  0
LINE
  8
0
 10
-26.7913
 20
42.2164
 11
-28.3399
 21
41.0912
  0
LINE
  8
0
 10
-28.3399
 20
41.0912
 11
-34.1609
 21
55.525
  0
LINE
  8
0
 10
-34.1609
 20
55.525
 11
-34.4559
 21
36.0984
  0
LINE
  8
0
 10
-34.4559
 20
36.0984
 11
-36.305
 21
34.362
  0
LINE
  8
0
 10
-36.305
 20
34.362
 11
-44.9588
 21
47.2092
  0
LINE
  8
0
 10
-44.9588
 20
47.2092
 11
-41.2158
 21
28.1839
  0
LINE
  8
0
 10
-41.2158
 20
28.1839
 11
-42.5976
 21
26.0065
  0
LINE
  8
0
 10
-42.5976
 20
26.0065
 11
-53.7916
 21
36.8301
  0
LINE
  8
0
 10
-53.7916
 20
36.8301
 11
-46.1916
 21
19.0379
  0
LINE
  8
0
 10
-46.1916
 20
19.0379
 11
-46.4888
 21
18.4062
  0
LINE
  8
0
 10
-46.4888
 20
18.4062
 11
-47.0803
 21
16.5857
  0
LINE
  8
0
 10
-47.0803
 20
16.5857
 11
-60.2736
 21
24.8414
  0
LINE
  8
0
 10
-60.2736
 20
24.8414
 11
-49.0936
 21
8.95155
  0
LINE
  8
0
 10
-49.0936
 20
8.95155
 11
-49.5689
 21
6.45987
  0
LINE
  8
0
 10
-49.5689
 20
6.45987
 11
-64.1213
 21
11.767
  0
LINE
  8
0
 10
-64.1213
 20
11.767
 11
-49.9104
 21
-1.42473
  0
LINE
  8
0
 10
-49.9104
 20
-1.42473
 11
-49.7484
 21
-3.99855
  0
LINE
  8
0
 10
-49.7484
 20
-3.99855
 11
-65.1666
 21
-1.82173
  0
LINE
  8
0
 10
-65.1666
 20
-1.82173
 11
-48.56
 21
-11.7487
  0
LINE
  8
0
 10
-48.56
 20
-11.7487
 11
-48.4292
 21
-12.4345
  0
LINE
  8
0
 10
-48.4292
 20
-12.4345
 11
-47.8376
 21
-14.255
  0
LINE
  8
0
 10
-47.8376
 20
-14.255
 11
-63.3638
 21
-15.3308
  0
LINE
  8
0
 10
-63.3638
 20
-15.3308
 11
-44.9791
 21
-21.6145
  0
LINE
  8
0
 10
-44.9791
 20
-21.6145
 11
-43.8991
 21
-23.9097
  0
LINE
  8
0
 10
-43.8991
 20
-23.9097
 11
-58.7916
 21
-28.1699
  0
LINE
  8
0
 10
-58.7916
 20
-28.1699
 11
-39.5409
 21
-30.4892
  0
LINE
  8
0
 10
-39.5409
 20
-30.4892
 11
-37.897
 21
-32.4763
  0
LINE
  8
0
 10
-37.897
 20
-32.4763
 11
-51.6501
 21
-39.7778
  0
LINE
  8
0
 10
-51.6501
 20
-39.7778
 11
-32.3801
 21
-38.0477
  0
LINE
  8
0
 10
-32.3801
 20
-38.0477
 11
-31.8712
 21
-38.5257
  0
LINE
  8
0
 10
-31.8712
 20
-38.5257
 11
-30.3226
 21
-39.6508
  0
LINE
  8
0
 10
-30.3226
 20
-39.6508
 11
-42.2511
 21
-49.6472
  0
LINE
  8
0
 10
-42.2511
 20
-49.6472
 11
-23.6842
 21
-43.9246
  0
LINE
  8
0
 10
-23.6842
 20
-43.9246
 11
-21.4613
 21
-45.1466
  0
LINE
  8
0
 10
-21.4613
 20
-45.1466
 11
-31.0056
 21
-57.3468
  0
LINE
  8
0
 10
-31.0056
 20
-57.3468
 11
-14.0681
 21
-47.9078
  0
LINE
  8
0
 10
-14.0681
 20
-47.9078
 11
-11.5703
 21
-48.5492
  0
LINE
  8
0
 10
-11.5703
 20
-48.5492
 11
-18.405
 21
-62.54
  0
LINE
  8
0
 10
-18.405
 20
-62.54
 11
-3.83214
 21
-49.8138
  0
LINE
  8
0
 10
-3.83214
 20
-49.8138
 11
-3.13951
 21
-49.9013
  0
LINE
  8
0
 10
-3.13951
 20
-49.9013
 11
-1.22533
 21
-49.9013
  0
LINE
  8
0
 10
-1.22533
 20
-49.9013
 11
-5
 21
-65
  0
LINE
  8
0
 10
-5
 20
-65
 11
6.65729
 21
-49.4569
  0
LINE
  8
0
 10
-0.0627899
 20
-0.998016
 11
-0.187378
 21
-0.982285
  0
LINE
  8
0
 10
-0.187378
 20
-0.982285
 11
-0.309006
 21
-0.95105
  0
LINE
  8
0
 10
-0.309006
 20
-0.95105
 11
-0.425766
 21
-0.904816
  0
LINE
  8
0
 10
-0.425766
 20
-0.904816
 11
-0.535812
 21
-0.844315
  0
LINE
  8
0
 10
-0.535812
 20
-0.844315
 11
-0.637421
 21
-0.770508
  0
LINE
  8
0
 10
-0.637421
 20
-0.770508
 11
-0.728958
 21
-0.68454
  0
LINE
  8
0
 10
-0.728958
 20
-0.68454
 11
-0.809006
 21
-0.587784
  0
LINE
  8
0
 10
-0.809006
 20
-0.587784
 11
-0.876297
 21
-0.48175
  0
LINE
  8
0
 10
-0.876297
 20
-0.48175
 11
-0.929764
 21
-0.368118
  0
LINE
  8
0
 10
-0.929764
 20
-0.368118
 11
-0.968582
 21
-0.248688
  0
LINE
  8
0
 10
-0.968582
 20
-0.248688
 11
-0.992111
 21
-0.12532
  0
LINE
  8
0
 10
-0.992111
 20
-0.12532
 11
-1
 21
0
  0
LINE
  8
0
 10
-1
 20
0
 11
-0.992111
 21
0.12532
  0
LINE
  8
0
 10
-0.992111
 20
0.12532
 11
-0.968582
 21
0.248688
  0
LINE
  8
0
 10
-0.968582
 20
0.248688
 11
-0.929764
 21
0.368118
  0
LINE
  8
0
 10
-0.929764
 20
0.368118
 11
-0.876297
 21
0.48175
  0
LINE
  8
0
 10
-0.876297
 20
0.48175
 11
-0.809006
 21
0.587784
  0
LINE
  8
0
 10
-0.809006
 20
0.587784
 11
-0.728958
 21
0.68454
  0
LINE
  8
0
 10
-0.728958
 20
0.68454
 11
-0.637421
 21
0.770508
  0
LINE
  8
0
 10
-0.637421
 20
0.770508
 11
-0.535812
 21
0.844315
  0
LINE
  8
0
 10
-0.535812
 20
0.844315
 11
-0.425766
 21
0.904816
  0
LINE
  8
0
 10
-0.425766
 20
0.904816
 11
-0.309006
 21
0.95105
  0
LINE
  8
0
 10
-0.309006
 20
0.95105
 11
-0.187378
 21
0.982285
  0
LINE
  8
0
 10
-0.187378
 20
0.982285
 11
-0.0627899
 21
0.998016
  0
LINE
  8
0
 10
-0.0627899
 20
0.998016
 11
0.0627899
 21
0.998016
  0
LINE
  8
0
 10
0.0627899
 20
0.998016
 11
0.187378
 21
0.982285
  0
LINE
  8
0
 10
0.187378
 20
0.982285
 11
0.309006
 21
0.95105
  0
LINE
  8
0
 10
0.309006
 20
0.95105
 11
0.425766
 21
0.904816
  0
LINE
  8
0
 10
0.425766
 20
0.904816
 11
0.535812
 21
0.844315
  0
LINE
  8
0
 10
0.535812
 20
0.844315
 11
0.637421
 21
0.770508
  0
LINE
  8
0
 10
0.637421
 20
0.770508
 11
0.728958
 21
0.68454
  0
LINE
  8
0
 10
0.728958
 20
0.68454
 11
0.809006
 21
0.587784
  0
LINE
  8
0
 10
0.809006
 20
0.587784
 11
0.876297
 21
0.48175
  0
LINE
  8
0
 10
0.876297
 20
0.48175
 11
0.929764
 21
0.368118
  0
LINE
  8
0
 10
0.929764
 20
0.368118
 11
0.968582
 21
0.248688
  0
LINE
  8
0
 10
0.968582
 20
0.248688
 11
0.992111
 21
0.12532
  0
LINE
  8
0
 10
0.992111
 20
0.12532
 11
1
 21
0
  0
LINE
  8
0
 10
1
 20
0
 11
0.992111
 21
-0.12532
  0
LINE
  8
0
 10
0.992111
 20
-0.12532
 11
0.968582
 21
-0.248688
  0
LINE
  8
0
 10
0.968582
 20
-0.248688
 11
0.929764
 21
-0.368118
  0
LINE
  8
0
 10
0.929764
 20
-0.368118
 11
0.876297
 21
-0.48175
  0
LINE
  8
0
 10
0.876297
 20
-0.48175
 11
0.809006
 21
-0.587784
  0
LINE
  8
0
 10
0.809006
 20
-0.587784
 11
0.728958
 21
-0.68454
  0
LINE
  8
0
 10
0.728958
 20
-0.68454
 11
0.637421
 21
-0.770508
  0
LINE
  8
0
 10
0.637421
 20
-0.770508
 11
0.535812
 21
-0.844315
  0
LINE
  8
0
 10
0.535812
 20
-0.844315
 11
0.425766
 21
-0.904816
  0
LINE
  8
0
 10
0.425766
 20
-0.904816
 11
0.309006
 21
-0.95105
  0
LINE
  8
0
 10
0.309006
 20
-0.95105
 11
0.187378
 21
-0.982285
  0
LINE
  8
0
 10
0.187378
 20
-0.982285
 11
0.0627899
 21
-0.998016
  0
LINE
  8
0
 10
0.0627899
 20
-0.998016
 11
-0.0627899
 21
-0.998016
  0
ENDSEC
  0
SECTION
  2
OBJECTS
  0
DICTIONARY
  0
ENDSEC
  0
EOF
